<svg width="62" height="63" viewBox="0 0 62 63" fill="none" xmlns="http://www.w3.org/2000/svg">
<path fill-rule="evenodd" clip-rule="evenodd" d="M21.033 0.840576C18.8238 0.840576 17.033 2.63144 17.033 4.84058V17.8735H4C1.79086 17.8735 0 19.6644 0 21.8735V42.4889C0 44.6981 1.79086 46.4889 4 46.4889H17.033V58.8406C17.033 61.0497 18.8238 62.8406 21.033 62.8406H41.6483C43.8575 62.8406 45.6484 61.0497 45.6484 58.8406V46.4889H58C60.2091 46.4889 62 44.6981 62 42.4889V21.8735C62 19.6644 60.2091 17.8735 58 17.8735H45.6484V4.84058C45.6484 2.63144 43.8575 0.840576 41.6483 0.840576H21.033Z" fill="#004E11"/>
<mask id="path-2-inside-1_31_111" fill="white">
<path fill-rule="evenodd" clip-rule="evenodd" d="M25.121 4.24707C22.9119 4.24707 21.121 6.03794 21.121 8.24707V21.9614H7.40674C5.1976 21.9614 3.40674 23.7522 3.40674 25.9614V38.4009C3.40674 40.6101 5.1976 42.4009 7.40674 42.4009H21.121V55.4339C21.121 57.643 22.9119 59.4339 25.121 59.4339H37.5606C39.7697 59.4339 41.5606 57.643 41.5606 55.4339V42.4009H54.5936C56.8027 42.4009 58.5936 40.6101 58.5936 38.4009V25.9614C58.5936 23.7522 56.8027 21.9614 54.5935 21.9614H41.5606V8.24707C41.5606 6.03793 39.7697 4.24707 37.5606 4.24707H25.121Z"/>
</mask>
<path fill-rule="evenodd" clip-rule="evenodd" d="M25.121 4.24707C22.9119 4.24707 21.121 6.03794 21.121 8.24707V21.9614H7.40674C5.1976 21.9614 3.40674 23.7522 3.40674 25.9614V38.4009C3.40674 40.6101 5.1976 42.4009 7.40674 42.4009H21.121V55.4339C21.121 57.643 22.9119 59.4339 25.121 59.4339H37.5606C39.7697 59.4339 41.5606 57.643 41.5606 55.4339V42.4009H54.5936C56.8027 42.4009 58.5936 40.6101 58.5936 38.4009V25.9614C58.5936 23.7522 56.8027 21.9614 54.5935 21.9614H41.5606V8.24707C41.5606 6.03793 39.7697 4.24707 37.5606 4.24707H25.121Z" fill="#004E11"/>
<path d="M21.121 21.9614V22.9614H22.121V21.9614H21.121ZM21.121 42.4009H22.121V41.4009H21.121V42.4009ZM41.5606 42.4009V41.4009H40.5606V42.4009H41.5606ZM41.5606 21.9614H40.5606V22.9614H41.5606V21.9614ZM22.121 8.24707C22.121 6.59022 23.4642 5.24707 25.121 5.24707V3.24707C22.3596 3.24707 20.121 5.48565 20.121 8.24707H22.121ZM22.121 21.9614V8.24707H20.121V21.9614H22.121ZM7.40674 22.9614H21.121V20.9614H7.40674V22.9614ZM4.40674 25.9614C4.40674 24.3045 5.74988 22.9614 7.40674 22.9614V20.9614C4.64532 20.9614 2.40674 23.1999 2.40674 25.9614H4.40674ZM4.40674 38.4009V25.9614H2.40674V38.4009H4.40674ZM7.40674 41.4009C5.74989 41.4009 4.40674 40.0578 4.40674 38.4009H2.40674C2.40674 41.1623 4.64532 43.4009 7.40674 43.4009V41.4009ZM21.121 41.4009H7.40674V43.4009H21.121V41.4009ZM22.121 55.4339V42.4009H20.121V55.4339H22.121ZM25.121 58.4339C23.4642 58.4339 22.121 57.0907 22.121 55.4339H20.121C20.121 58.1953 22.3596 60.4339 25.121 60.4339V58.4339ZM37.5606 58.4339H25.121V60.4339H37.5606V58.4339ZM40.5606 55.4339C40.5606 57.0907 39.2174 58.4339 37.5606 58.4339V60.4339C40.322 60.4339 42.5606 58.1953 42.5606 55.4339H40.5606ZM40.5606 42.4009V55.4339H42.5606V42.4009H40.5606ZM54.5936 41.4009H41.5606V43.4009H54.5936V41.4009ZM57.5936 38.4009C57.5936 40.0578 56.2504 41.4009 54.5936 41.4009V43.4009C57.355 43.4009 59.5936 41.1623 59.5936 38.4009H57.5936ZM57.5936 25.9614V38.4009H59.5936V25.9614H57.5936ZM54.5935 22.9614C56.2504 22.9614 57.5936 24.3045 57.5936 25.9614H59.5936C59.5936 23.1999 57.355 20.9614 54.5935 20.9614V22.9614ZM41.5606 22.9614H54.5935V20.9614H41.5606V22.9614ZM40.5606 8.24707V21.9614H42.5606V8.24707H40.5606ZM37.5606 5.24707C39.2174 5.24707 40.5606 6.59022 40.5606 8.24707H42.5606C42.5606 5.48565 40.322 3.24707 37.5606 3.24707V5.24707ZM25.121 5.24707H37.5606V3.24707H25.121V5.24707Z" fill="white" mask="url(#path-2-inside-1_31_111)"/>
<mask id="path-4-inside-2_31_111" fill="white">
<path fill-rule="evenodd" clip-rule="evenodd" d="M27.8461 6.97241C25.637 6.97241 23.8461 8.76327 23.8461 10.9724V24.6867H10.1318C7.9227 24.6867 6.13184 26.4776 6.13184 28.6867V35.6757C6.13184 37.8848 7.9227 39.6757 10.1318 39.6757H23.8461V53.39C23.8461 55.5991 25.637 57.39 27.8461 57.39H34.8351C37.0443 57.39 38.8351 55.5991 38.8351 53.39V39.6757H51.8681C54.0772 39.6757 55.8681 37.8848 55.8681 35.6757V28.6867C55.8681 26.4776 54.0772 24.6867 51.8681 24.6867H38.8351V10.9724C38.8351 8.76327 37.0443 6.97241 34.8351 6.97241H27.8461Z"/>
</mask>
<path fill-rule="evenodd" clip-rule="evenodd" d="M27.8461 6.97241C25.637 6.97241 23.8461 8.76327 23.8461 10.9724V24.6867H10.1318C7.9227 24.6867 6.13184 26.4776 6.13184 28.6867V35.6757C6.13184 37.8848 7.9227 39.6757 10.1318 39.6757H23.8461V53.39C23.8461 55.5991 25.637 57.39 27.8461 57.39H34.8351C37.0443 57.39 38.8351 55.5991 38.8351 53.39V39.6757H51.8681C54.0772 39.6757 55.8681 37.8848 55.8681 35.6757V28.6867C55.8681 26.4776 54.0772 24.6867 51.8681 24.6867H38.8351V10.9724C38.8351 8.76327 37.0443 6.97241 34.8351 6.97241H27.8461Z" fill="#004E11"/>
<path d="M23.8461 24.6867V25.6867H24.8461V24.6867H23.8461ZM23.8461 39.6757H24.8461V38.6757H23.8461V39.6757ZM38.8351 39.6757V38.6757H37.8351V39.6757H38.8351ZM38.8351 24.6867H37.8351V25.6867H38.8351V24.6867ZM24.8461 10.9724C24.8461 9.31556 26.1893 7.97241 27.8461 7.97241V5.97241C25.0847 5.97241 22.8461 8.21099 22.8461 10.9724H24.8461ZM24.8461 24.6867V10.9724H22.8461V24.6867H24.8461ZM10.1318 25.6867H23.8461V23.6867H10.1318V25.6867ZM7.13184 28.6867C7.13184 27.0298 8.47498 25.6867 10.1318 25.6867V23.6867C7.37041 23.6867 5.13184 25.9253 5.13184 28.6867H7.13184ZM7.13184 35.6757V28.6867H5.13184V35.6757H7.13184ZM10.1318 38.6757C8.47498 38.6757 7.13184 37.3326 7.13184 35.6757H5.13184C5.13184 38.4371 7.37042 40.6757 10.1318 40.6757V38.6757ZM23.8461 38.6757H10.1318V40.6757H23.8461V38.6757ZM24.8461 53.39V39.6757H22.8461V53.39H24.8461ZM27.8461 56.39C26.1893 56.39 24.8461 55.0468 24.8461 53.39H22.8461C22.8461 56.1514 25.0847 58.39 27.8461 58.39V56.39ZM34.8351 56.39H27.8461V58.39H34.8351V56.39ZM37.8351 53.39C37.8351 55.0469 36.492 56.39 34.8351 56.39V58.39C37.5966 58.39 39.8351 56.1514 39.8351 53.39H37.8351ZM37.8351 39.6757V53.39H39.8351V39.6757H37.8351ZM51.8681 38.6757H38.8351V40.6757H51.8681V38.6757ZM54.8681 35.6757C54.8681 37.3326 53.525 38.6757 51.8681 38.6757V40.6757C54.6295 40.6757 56.8681 38.4371 56.8681 35.6757H54.8681ZM54.8681 28.6867V35.6757H56.8681V28.6867H54.8681ZM51.8681 25.6867C53.5249 25.6867 54.8681 27.0298 54.8681 28.6867H56.8681C56.8681 25.9253 54.6295 23.6867 51.8681 23.6867V25.6867ZM38.8351 25.6867H51.8681V23.6867H38.8351V25.6867ZM37.8351 10.9724V24.6867H39.8351V10.9724H37.8351ZM34.8351 7.97241C36.492 7.97241 37.8351 9.31556 37.8351 10.9724H39.8351C39.8351 8.21099 37.5966 5.97241 34.8351 5.97241V7.97241ZM27.8461 7.97241H34.8351V5.97241H27.8461V7.97241Z" fill="white" mask="url(#path-4-inside-2_31_111)"/>
</svg>
