<svg width="62" height="62" viewBox="0 0 62 62" fill="none" xmlns="http://www.w3.org/2000/svg">
<path fill-rule="evenodd" clip-rule="evenodd" d="M21.033 0C18.8238 0 17.033 1.79086 17.033 4V17.033H4C1.79086 17.033 0 18.8238 0 21.033V41.6483C0 43.8575 1.79086 45.6483 4 45.6483H17.033V58C17.033 60.2091 18.8238 62 21.033 62H41.6483C43.8575 62 45.6484 60.2091 45.6484 58V45.6483H58C60.2091 45.6483 62 43.8575 62 41.6483V21.033C62 18.8238 60.2091 17.033 58 17.033H45.6484V4C45.6484 1.79086 43.8575 0 41.6483 0H21.033Z" fill="black"/>
<mask id="path-2-inside-1_31_131" fill="white">
<path fill-rule="evenodd" clip-rule="evenodd" d="M25.1209 3.40649C22.9118 3.40649 21.1209 5.19736 21.1209 7.4065V21.1208H7.40662C5.19748 21.1208 3.40662 22.9116 3.40662 25.1208V37.5603C3.40662 39.7695 5.19748 41.5603 7.40662 41.5603H21.1209V54.5933C21.1209 56.8024 22.9118 58.5933 25.1209 58.5933H37.5605C39.7696 58.5933 41.5605 56.8024 41.5605 54.5933V41.5603H54.5934C56.8026 41.5603 58.5934 39.7695 58.5934 37.5603V25.1208C58.5934 22.9116 56.8026 21.1208 54.5934 21.1208H41.5605V7.40649C41.5605 5.19736 39.7696 3.40649 37.5605 3.40649H25.1209Z"/>
</mask>
<path fill-rule="evenodd" clip-rule="evenodd" d="M25.1209 3.40649C22.9118 3.40649 21.1209 5.19736 21.1209 7.4065V21.1208H7.40662C5.19748 21.1208 3.40662 22.9116 3.40662 25.1208V37.5603C3.40662 39.7695 5.19748 41.5603 7.40662 41.5603H21.1209V54.5933C21.1209 56.8024 22.9118 58.5933 25.1209 58.5933H37.5605C39.7696 58.5933 41.5605 56.8024 41.5605 54.5933V41.5603H54.5934C56.8026 41.5603 58.5934 39.7695 58.5934 37.5603V25.1208C58.5934 22.9116 56.8026 21.1208 54.5934 21.1208H41.5605V7.40649C41.5605 5.19736 39.7696 3.40649 37.5605 3.40649H25.1209Z" fill="black"/>
<path d="M21.1209 21.1208V22.1208H22.1209V21.1208H21.1209ZM21.1209 41.5603H22.1209V40.5603H21.1209V41.5603ZM41.5605 41.5603V40.5603H40.5605V41.5603H41.5605ZM41.5605 21.1208H40.5605V22.1208H41.5605V21.1208ZM22.1209 7.4065C22.1209 5.74964 23.464 4.40649 25.1209 4.40649V2.40649C22.3595 2.40649 20.1209 4.64508 20.1209 7.4065H22.1209ZM22.1209 21.1208V7.4065H20.1209V21.1208H22.1209ZM7.40662 22.1208H21.1209V20.1208H7.40662V22.1208ZM4.40662 25.1208C4.40662 23.4639 5.74976 22.1208 7.40662 22.1208V20.1208C4.64519 20.1208 2.40662 22.3594 2.40662 25.1208H4.40662ZM4.40662 37.5603V25.1208H2.40662V37.5603H4.40662ZM7.40662 40.5603C5.74976 40.5603 4.40662 39.2172 4.40662 37.5603H2.40662C2.40662 40.3218 4.6452 42.5603 7.40662 42.5603V40.5603ZM21.1209 40.5603H7.40662V42.5603H21.1209V40.5603ZM22.1209 54.5933V41.5603H20.1209V54.5933H22.1209ZM25.1209 57.5933C23.464 57.5933 22.1209 56.2502 22.1209 54.5933H20.1209C20.1209 57.3547 22.3595 59.5933 25.1209 59.5933V57.5933ZM37.5605 57.5933H25.1209V59.5933H37.5605V57.5933ZM40.5605 54.5933C40.5605 56.2502 39.2173 57.5933 37.5605 57.5933V59.5933C40.3219 59.5933 42.5605 57.3547 42.5605 54.5933H40.5605ZM40.5605 41.5603V54.5933H42.5605V41.5603H40.5605ZM54.5934 40.5603H41.5605V42.5603H54.5934V40.5603ZM57.5934 37.5603C57.5934 39.2172 56.2503 40.5603 54.5934 40.5603V42.5603C57.3549 42.5603 59.5934 40.3218 59.5934 37.5603H57.5934ZM57.5934 25.1208V37.5603H59.5934V25.1208H57.5934ZM54.5934 22.1208C56.2503 22.1208 57.5934 23.4639 57.5934 25.1208H59.5934C59.5934 22.3594 57.3548 20.1208 54.5934 20.1208V22.1208ZM41.5605 22.1208H54.5934V20.1208H41.5605V22.1208ZM40.5605 7.40649V21.1208H42.5605V7.40649H40.5605ZM37.5605 4.40649C39.2173 4.40649 40.5605 5.74964 40.5605 7.40649H42.5605C42.5605 4.64507 40.3219 2.40649 37.5605 2.40649V4.40649ZM25.1209 4.40649H37.5605V2.40649H25.1209V4.40649Z" fill="white" mask="url(#path-2-inside-1_31_131)"/>
<mask id="path-4-inside-2_31_131" fill="white">
<path fill-rule="evenodd" clip-rule="evenodd" d="M27.8461 6.13184C25.637 6.13184 23.8461 7.92269 23.8461 10.1318V23.8461H10.1318C7.9227 23.8461 6.13184 25.637 6.13184 27.8461V34.8351C6.13184 37.0443 7.9227 38.8351 10.1318 38.8351H23.8461V52.5494C23.8461 54.7586 25.637 56.5494 27.8461 56.5494H34.8351C37.0443 56.5494 38.8351 54.7586 38.8351 52.5494V38.8351H51.8681C54.0772 38.8351 55.8681 37.0443 55.8681 34.8351V27.8461C55.8681 25.637 54.0772 23.8461 51.8681 23.8461H38.8351V10.1318C38.8351 7.9227 37.0443 6.13184 34.8351 6.13184H27.8461Z"/>
</mask>
<path fill-rule="evenodd" clip-rule="evenodd" d="M27.8461 6.13184C25.637 6.13184 23.8461 7.92269 23.8461 10.1318V23.8461H10.1318C7.9227 23.8461 6.13184 25.637 6.13184 27.8461V34.8351C6.13184 37.0443 7.9227 38.8351 10.1318 38.8351H23.8461V52.5494C23.8461 54.7586 25.637 56.5494 27.8461 56.5494H34.8351C37.0443 56.5494 38.8351 54.7586 38.8351 52.5494V38.8351H51.8681C54.0772 38.8351 55.8681 37.0443 55.8681 34.8351V27.8461C55.8681 25.637 54.0772 23.8461 51.8681 23.8461H38.8351V10.1318C38.8351 7.9227 37.0443 6.13184 34.8351 6.13184H27.8461Z" fill="black"/>
<path d="M23.8461 23.8461V24.8461H24.8461V23.8461H23.8461ZM23.8461 38.8351H24.8461V37.8351H23.8461V38.8351ZM38.8351 38.8351V37.8351H37.8351V38.8351H38.8351ZM38.8351 23.8461H37.8351V24.8461H38.8351V23.8461ZM24.8461 10.1318C24.8461 8.47498 26.1893 7.13184 27.8461 7.13184V5.13184C25.0847 5.13184 22.8461 7.37041 22.8461 10.1318H24.8461ZM24.8461 23.8461V10.1318H22.8461V23.8461H24.8461ZM10.1318 24.8461H23.8461V22.8461H10.1318V24.8461ZM7.13184 27.8461C7.13184 26.1893 8.47498 24.8461 10.1318 24.8461V22.8461C7.37041 22.8461 5.13184 25.0847 5.13184 27.8461H7.13184ZM7.13184 34.8351V27.8461H5.13184V34.8351H7.13184ZM10.1318 37.8351C8.47498 37.8351 7.13184 36.492 7.13184 34.8351H5.13184C5.13184 37.5966 7.37042 39.8351 10.1318 39.8351V37.8351ZM23.8461 37.8351H10.1318V39.8351H23.8461V37.8351ZM24.8461 52.5494V38.8351H22.8461V52.5494H24.8461ZM27.8461 55.5494C26.1893 55.5494 24.8461 54.2063 24.8461 52.5494H22.8461C22.8461 55.3108 25.0847 57.5494 27.8461 57.5494V55.5494ZM34.8351 55.5494H27.8461V57.5494H34.8351V55.5494ZM37.8351 52.5494C37.8351 54.2063 36.492 55.5494 34.8351 55.5494V57.5494C37.5966 57.5494 39.8351 55.3108 39.8351 52.5494H37.8351ZM37.8351 38.8351V52.5494H39.8351V38.8351H37.8351ZM51.8681 37.8351H38.8351V39.8351H51.8681V37.8351ZM54.8681 34.8351C54.8681 36.492 53.525 37.8351 51.8681 37.8351V39.8351C54.6295 39.8351 56.8681 37.5966 56.8681 34.8351H54.8681ZM54.8681 27.8461V34.8351H56.8681V27.8461H54.8681ZM51.8681 24.8461C53.5249 24.8461 54.8681 26.1893 54.8681 27.8461H56.8681C56.8681 25.0847 54.6295 22.8461 51.8681 22.8461V24.8461ZM38.8351 24.8461H51.8681V22.8461H38.8351V24.8461ZM37.8351 10.1318V23.8461H39.8351V10.1318H37.8351ZM34.8351 7.13184C36.492 7.13184 37.8351 8.47498 37.8351 10.1318H39.8351C39.8351 7.37041 37.5966 5.13184 34.8351 5.13184V7.13184ZM27.8461 7.13184H34.8351V5.13184H27.8461V7.13184Z" fill="white" mask="url(#path-4-inside-2_31_131)"/>
</svg>
