<svg width="49" height="89" viewBox="0 0 49 89" fill="none" xmlns="http://www.w3.org/2000/svg">
<ellipse cx="27.3486" cy="51" rx="17.5" ry="38" fill="black"/>
<path fill-rule="evenodd" clip-rule="evenodd" d="M1.84863 27.3916C5.36925 34.3352 15.9552 36.3989 25.8172 31.9644C35.6791 27.53 41.1606 18.2416 38.3029 11L37.3897 11.4106C38.6281 14.5961 38.1154 18.2889 36.1041 21.7947C33.9957 25.4699 30.2721 28.8648 25.4071 31.0524C20.5421 33.2399 15.5313 33.7724 11.3828 32.9106C7.42555 32.0886 4.3229 30.0214 2.76184 26.981L1.84863 27.3916ZM10.8486 77.3916C14.3692 84.3352 24.9552 86.3989 34.8172 81.9644C44.6791 77.53 50.1606 68.2416 47.3029 61L46.3897 61.4106C47.6281 64.5961 47.1154 68.2889 45.1041 71.7947C42.9957 75.4699 39.2721 78.8648 34.4071 81.0524C29.5421 83.2399 24.5313 83.7724 20.3828 82.9106C16.4255 82.0886 13.3229 80.0214 11.7618 76.981L10.8486 77.3916ZM5.84863 38.3916C9.36925 45.3352 19.9552 47.3989 29.8172 42.9644C39.6791 38.53 45.1606 29.2416 42.3029 22L41.3897 22.4106C42.6281 25.5961 42.1154 29.2889 40.1041 32.7947C37.9957 36.4699 34.2721 39.8648 29.4071 42.0524C24.5421 44.2399 19.5313 44.7724 15.3828 43.9106C11.4255 43.0886 8.3229 41.0214 6.76184 37.981L5.84863 38.3916ZM9.84863 65.3916C13.3692 72.3352 23.9552 74.3989 33.8172 69.9644C43.6791 65.53 49.1606 56.2416 46.3029 49L45.3897 49.4106C46.6281 52.5961 46.1154 56.2889 44.1041 59.7947C41.9957 63.4699 38.2721 66.8648 33.4071 69.0524C28.5421 71.2399 23.5313 71.7724 19.3828 70.9106C15.4255 70.0886 12.3229 68.0214 10.7618 64.981L9.84863 65.3916ZM44.5494 34.4395C45.7683 37.6075 45.1591 41.3419 42.9619 44.9422C40.6601 48.7141 36.6617 52.2399 31.487 54.5667C26.3123 56.8935 21.0214 57.5446 16.6722 56.7634C12.5208 56.0177 9.323 53.9952 7.76212 50.9809L6.84875 51.3916C10.389 58.3263 21.4509 60.1759 31.8971 55.4788C42.3434 50.7816 48.3008 41.2793 45.4627 34.0288L44.5494 34.4395ZM20.0165 29.0241C20.0124 29.0259 20.0083 29.0278 20.0043 29.0296C20.0002 29.0314 19.9961 29.0333 19.992 29.0351L20.0165 29.0241ZM1 24.3916C4.52061 31.3352 15.1066 33.3989 24.9685 28.9644C34.8305 24.53 40.312 15.2416 37.4542 8L36.541 8.41062C37.7795 11.5961 37.2667 15.2889 35.2555 18.7947C33.1471 22.4699 29.4234 25.8648 24.5584 28.0524C19.6934 30.2399 14.6827 30.7724 10.5342 29.9106C6.57692 29.0886 3.47426 27.0214 1.9132 23.981L1 24.3916ZM10 74.3916C13.5206 81.3352 24.1066 83.3989 33.9685 78.9644C43.8305 74.53 49.312 65.2416 46.4542 58L45.541 58.4106C46.7795 61.5961 46.2667 65.2889 44.2555 68.7947C42.1471 72.4699 38.4234 75.8648 33.5584 78.0524C28.6934 80.2399 23.6827 80.7724 19.5342 79.9106C15.5769 79.0886 12.4743 77.0214 10.9132 73.981L10 74.3916ZM5 35.3916C8.52061 42.3352 19.1066 44.3989 28.9685 39.9644C38.8305 35.53 44.312 26.2416 41.4542 19L40.541 19.4106C41.7795 22.5961 41.2667 26.2889 39.2555 29.7947C37.1471 33.4699 33.4234 36.8648 28.5584 39.0524C23.6934 41.2399 18.6827 41.7724 14.5342 40.9106C10.5769 40.0886 7.47426 38.0214 5.9132 34.981L5 35.3916ZM9 62.3916C12.5206 69.3352 23.1066 71.3989 32.9685 66.9644C42.8305 62.53 48.312 53.2416 45.4542 46L44.541 46.4106C45.7795 49.5961 45.2667 53.2889 43.2555 56.7947C41.1471 60.4699 37.4234 63.8648 32.5584 66.0524C27.6934 68.2399 22.6827 68.7724 18.5342 67.9106C14.5769 67.0886 11.4743 65.0214 9.9132 61.981L9 62.3916ZM43.7007 31.4395C44.9197 34.6075 44.3105 38.3419 42.1133 41.9422C39.8114 45.7141 35.8131 49.2399 30.6384 51.5667C25.4637 53.8935 20.1727 54.5446 15.8235 53.7634C11.6722 53.0177 8.47437 50.9952 6.91349 47.9809L6.00012 48.3916C9.54039 55.3263 20.6023 57.1759 31.0485 52.4788C41.4947 47.7816 47.4522 38.2793 44.6141 31.0288L43.7007 31.4395ZM19.1679 26.0241C19.1638 26.0259 19.1597 26.0278 19.1556 26.0296C19.1515 26.0314 19.1474 26.0333 19.1434 26.0351L19.1679 26.0241ZM1 21.3916C4.52061 28.3352 15.1066 30.3989 24.9685 25.9644C34.8305 21.53 40.312 12.2416 37.4542 5L36.541 5.41062C37.7795 8.59611 37.2667 12.2889 35.2555 15.7947C33.1471 19.4699 29.4234 22.8648 24.5584 25.0524C19.6934 27.2399 14.6827 27.7724 10.5342 26.9106C6.57692 26.0886 3.47426 24.0214 1.9132 20.981L1 21.3916ZM10 71.3916C13.5206 78.3352 24.1066 80.3989 33.9685 75.9644C43.8305 71.53 49.312 62.2416 46.4542 55L45.541 55.4106C46.7795 58.5961 46.2667 62.2889 44.2555 65.7947C42.1471 69.4699 38.4234 72.8648 33.5584 75.0524C28.6934 77.2399 23.6827 77.7724 19.5342 76.9106C15.5769 76.0886 12.4743 74.0214 10.9132 70.981L10 71.3916ZM5 32.3916C8.52061 39.3352 19.1066 41.3989 28.9685 36.9644C38.8305 32.53 44.312 23.2416 41.4542 16L40.541 16.4106C41.7795 19.5961 41.2667 23.2889 39.2555 26.7947C37.1471 30.4699 33.4234 33.8648 28.5584 36.0524C23.6934 38.2399 18.6827 38.7724 14.5342 37.9106C10.5769 37.0886 7.47426 35.0214 5.9132 31.981L5 32.3916ZM9 59.3916C12.5206 66.3352 23.1066 68.3989 32.9685 63.9644C42.8305 59.53 48.312 50.2416 45.4542 43L44.541 43.4106C45.7795 46.5961 45.2667 50.2889 43.2555 53.7947C41.1471 57.4699 37.4234 60.8648 32.5584 63.0524C27.6934 65.2399 22.6827 65.7724 18.5342 64.9106C14.5769 64.0886 11.4743 62.0214 9.9132 58.981L9 59.3916ZM43.7007 28.4395C44.9197 31.6075 44.3105 35.3419 42.1133 38.9422C39.8114 42.7141 35.8131 46.2399 30.6384 48.5667C25.4637 50.8935 20.1727 51.5446 15.8235 50.7634C11.6722 50.0177 8.47437 47.9952 6.91349 44.9809L6.00012 45.3916C9.54039 52.3263 20.6023 54.1759 31.0485 49.4788C41.4947 44.7816 47.4522 35.2793 44.6141 28.0288L43.7007 28.4395ZM19.1679 23.0241C19.1638 23.0259 19.1597 23.0278 19.1556 23.0296C19.1515 23.0314 19.1474 23.0333 19.1434 23.0351L19.1679 23.0241ZM1 18.3916C4.52061 25.3352 15.1066 27.3989 24.9685 22.9644C34.8305 18.53 40.312 9.24163 37.4542 2L36.541 2.41062C37.7795 5.59611 37.2667 9.28889 35.2555 12.7947C33.1471 16.4699 29.4234 19.8648 24.5584 22.0524C19.6934 24.2399 14.6827 24.7724 10.5342 23.9106C6.57692 23.0886 3.47426 21.0214 1.9132 17.981L1 18.3916ZM10 68.3916C13.5206 75.3352 24.1066 77.3989 33.9685 72.9644C43.8305 68.53 49.312 59.2416 46.4542 52L45.541 52.4106C46.7795 55.5961 46.2667 59.2889 44.2555 62.7947C42.1471 66.4699 38.4234 69.8648 33.5584 72.0524C28.6934 74.2399 23.6827 74.7724 19.5342 73.9106C15.5769 73.0886 12.4743 71.0214 10.9132 67.981L10 68.3916ZM5 29.3916C8.52061 36.3352 19.1066 38.3989 28.9685 33.9644C38.8305 29.53 44.312 20.2416 41.4542 13L40.541 13.4106C41.7795 16.5961 41.2667 20.2889 39.2555 23.7947C37.1471 27.4699 33.4234 30.8648 28.5584 33.0524C23.6934 35.2399 18.6827 35.7724 14.5342 34.9106C10.5769 34.0886 7.47426 32.0214 5.9132 28.981L5 29.3916ZM9 56.3916C12.5206 63.3352 23.1066 65.3989 32.9685 60.9644C42.8305 56.53 48.312 47.2416 45.4542 40L44.541 40.4106C45.7795 43.5961 45.2667 47.2889 43.2555 50.7947C41.1471 54.4699 37.4234 57.8648 32.5584 60.0524C27.6934 62.2399 22.6827 62.7724 18.5342 61.9106C14.5769 61.0886 11.4743 59.0214 9.9132 55.981L9 56.3916ZM43.7007 25.4395C44.9197 28.6075 44.3105 32.3419 42.1133 35.9422C39.8114 39.7141 35.8131 43.2399 30.6384 45.5667C25.4637 47.8935 20.1727 48.5446 15.8235 47.7634C11.6722 47.0177 8.47437 44.9952 6.91349 41.9809L6.00012 42.3916C9.54039 49.3263 20.6023 51.1759 31.0485 46.4788C41.4947 41.7816 47.4522 32.2793 44.6141 25.0288L43.7007 25.4395ZM19.1679 20.0241C19.1638 20.0259 19.1597 20.0278 19.1556 20.0296C19.1515 20.0314 19.1474 20.0333 19.1434 20.0351L19.1679 20.0241ZM0 16.3916C3.52061 23.3352 14.1066 25.3989 23.9685 20.9644C33.8305 16.53 39.312 7.24163 36.4542 0L35.541 0.410622C36.7795 3.59611 36.2667 7.28889 34.2555 10.7947C32.1471 14.4699 28.4234 17.8648 23.5584 20.0524C18.6934 22.2399 13.6827 22.7724 9.53421 21.9106C5.57692 21.0886 2.47426 19.0214 0.913204 15.981L0 16.3916ZM9 66.3916C12.5206 73.3352 23.1066 75.3989 32.9685 70.9644C42.8305 66.53 48.312 57.2416 45.4542 50L44.541 50.4106C45.7795 53.5961 45.2667 57.2889 43.2555 60.7947C41.1471 64.4699 37.4234 67.8648 32.5584 70.0524C27.6934 72.2399 22.6827 72.7724 18.5342 71.9106C14.5769 71.0886 11.4743 69.0214 9.9132 65.981L9 66.3916ZM4 27.3916C7.52061 34.3352 18.1066 36.3989 27.9685 31.9644C37.8305 27.53 43.312 18.2416 40.4542 11L39.541 11.4106C40.7795 14.5961 40.2667 18.2889 38.2555 21.7947C36.1471 25.4699 32.4234 28.8648 27.5584 31.0524C22.6934 33.2399 17.6827 33.7724 13.5342 32.9106C9.57692 32.0886 6.47426 30.0214 4.9132 26.981L4 27.3916ZM8 54.3916C11.5206 61.3352 22.1066 63.3989 31.9685 58.9644C41.8305 54.53 47.312 45.2416 44.4542 38L43.541 38.4106C44.7795 41.5961 44.2667 45.2889 42.2555 48.7947C40.1471 52.4699 36.4234 55.8648 31.5584 58.0524C26.6934 60.2399 21.6827 60.7724 17.5342 59.9106C13.5769 59.0886 10.4743 57.0214 8.9132 53.981L8 54.3916ZM42.7007 23.4395C43.9197 26.6075 43.3105 30.3419 41.1133 33.9422C38.8114 37.7141 34.8131 41.2399 29.6384 43.5667C24.4637 45.8935 19.1727 46.5446 14.8235 45.7634C10.6722 45.0177 7.47437 42.9952 5.91349 39.9809L5.00012 40.3916C8.54039 47.3263 19.6023 49.1759 30.0485 44.4788C40.4947 39.7816 46.4522 30.2793 43.6141 23.0288L42.7007 23.4395ZM18.1679 18.0241C18.1638 18.0259 18.1597 18.0278 18.1556 18.0296C18.1515 18.0314 18.1474 18.0333 18.1434 18.0351L18.1679 18.0241Z" fill="white"/>
</svg>
