<svg width="85" height="85" viewBox="0 0 85 85" fill="none" xmlns="http://www.w3.org/2000/svg">
<circle cx="42.5" cy="42.5" r="42.5" fill="black"/>
<mask id="path-2-inside-1_31_251" fill="white">
<path fill-rule="evenodd" clip-rule="evenodd" d="M42.7136 57.8871C45.3475 53.4958 47 48.2004 47 42.5C47 36.7996 45.3475 31.5042 42.7136 27.1129C47.0407 19.8044 54.1001 15 61 15C72.0457 15 81 27.3122 81 42.5C81 57.6878 72.0457 70 61 70C54.1001 70 47.0407 65.1956 42.7136 57.8871ZM42.7136 57.8871C38.3298 65.1956 31.2274 70 24.5 70C13.7304 70 5 57.6878 5 42.5C5 27.3122 13.7304 15 24.5 15C31.2274 15 38.3298 19.8044 42.7136 27.1129C40.1136 31.5042 38.5 36.7996 38.5 42.5C38.5 48.2004 40.1136 53.4958 42.7136 57.8871Z"/>
</mask>
<path fill-rule="evenodd" clip-rule="evenodd" d="M42.7136 57.8871C45.3475 53.4958 47 48.2004 47 42.5C47 36.7996 45.3475 31.5042 42.7136 27.1129C47.0407 19.8044 54.1001 15 61 15C72.0457 15 81 27.3122 81 42.5C81 57.6878 72.0457 70 61 70C54.1001 70 47.0407 65.1956 42.7136 57.8871ZM42.7136 57.8871C38.3298 65.1956 31.2274 70 24.5 70C13.7304 70 5 57.6878 5 42.5C5 27.3122 13.7304 15 24.5 15C31.2274 15 38.3298 19.8044 42.7136 27.1129C40.1136 31.5042 38.5 36.7996 38.5 42.5C38.5 48.2004 40.1136 53.4958 42.7136 57.8871Z" fill="#070707"/>
<path d="M46 42.5C46 48.0063 44.4036 53.1253 41.856 57.3727L43.5711 58.4015C46.2914 53.8662 48 48.3945 48 42.5H46ZM41.856 27.6273C44.4036 31.8747 46 36.9937 46 42.5H48C48 36.6055 46.2914 31.1338 43.5711 26.5985L41.856 27.6273ZM43.574 27.6224C47.7796 20.5192 54.5548 16 61 16V14C53.6454 14 46.3018 19.0895 41.8531 26.6034L43.574 27.6224ZM61 16C66.1241 16 70.8506 18.8538 74.3334 23.6427C77.8155 28.4307 80 35.0945 80 42.5H82C82 34.7177 79.7073 27.6315 75.9509 22.4664C72.1951 17.3023 66.9216 14 61 14V16ZM80 42.5C80 49.9055 77.8155 56.5693 74.3334 61.3573C70.8506 66.1462 66.1241 69 61 69V71C66.9216 71 72.1951 67.6977 75.9509 62.5336C79.7073 57.3685 82 50.2823 82 42.5H80ZM61 69C54.5548 69 47.7796 64.4808 43.574 57.3776L41.8531 58.3966C46.3018 65.9105 53.6454 71 61 71V69ZM41.856 57.3727C37.591 64.4832 30.7704 69 24.5 69V71C31.6844 71 39.0686 65.908 43.5711 58.4015L41.856 57.3727ZM24.5 69C19.5253 69 14.9243 66.1579 11.5272 61.367C8.13163 56.5784 6 49.9111 6 42.5H4C4 50.2767 6.2336 57.3594 9.89569 62.5239C13.5561 67.686 18.7052 71 24.5 71V69ZM6 42.5C6 35.0889 8.13163 28.4216 11.5272 23.633C14.9243 18.8421 19.5253 16 24.5 16V14C18.7052 14 13.5561 17.314 9.89569 22.4761C6.2336 27.6406 4 34.7233 4 42.5H6ZM24.5 16C30.7704 16 37.591 20.5168 41.856 27.6273L43.5711 26.5985C39.0686 19.092 31.6844 14 24.5 14V16ZM39.5 42.5C39.5 36.9888 41.0602 31.8683 43.574 27.6224L41.8531 26.6034C39.167 31.1401 37.5 36.6103 37.5 42.5H39.5ZM43.574 57.3776C41.0602 53.1317 39.5 48.0112 39.5 42.5H37.5C37.5 48.3897 39.167 53.8599 41.8531 58.3966L43.574 57.3776Z" fill="white" mask="url(#path-2-inside-1_31_251)"/>
<path d="M29.5 43.5C29.5 56.7548 30.2843 66 22 66C13.7157 66 7 55.2548 7 42C7 28.7452 13.7157 18 22 18C30.2843 18 29.5 30.2452 29.5 43.5Z" fill="white"/>
<path d="M79 42C79 55.2548 72.0604 66 63.5 66C54.9396 66 54.5 55.7548 54.5 42.5C54.5 29.2452 54.9396 18 63.5 18C72.0604 18 79 28.7452 79 42Z" fill="white"/>
<circle cx="43" cy="46" r="2" fill="white"/>
<circle cx="43" cy="46" r="1" fill="black"/>
</svg>
