<svg width="88" height="88" viewBox="0 0 88 88" fill="none" xmlns="http://www.w3.org/2000/svg">
<path fill-rule="evenodd" clip-rule="evenodd" d="M15.032 29.1274C13.4699 30.6895 13.4699 33.2222 15.032 34.7843L24.2477 44L15.032 53.2157C13.4699 54.7778 13.4699 57.3105 15.032 58.8726L29.6093 73.4498C31.1713 75.0119 33.704 75.0119 35.2661 73.4498L44.4818 64.2341L53.2157 72.9681C54.7778 74.5302 57.3105 74.5302 58.8726 72.9681L73.4499 58.3908C75.012 56.8287 75.012 54.296 73.4499 52.7339L64.7159 44L73.4499 35.2661C75.012 33.704 75.012 31.1713 73.4499 29.6092L58.8726 15.0319C57.3105 13.4698 54.7778 13.4698 53.2157 15.0319L44.4818 23.7659L35.2661 14.5502C33.704 12.9881 31.1713 12.9881 29.6093 14.5502L15.032 29.1274Z" fill="#7A0202"/>
<mask id="path-2-inside-1_31_121" fill="white">
<path fill-rule="evenodd" clip-rule="evenodd" d="M20.3314 28.6456C18.7693 30.2077 18.7693 32.7403 20.3314 34.3024L30.0288 43.9999L20.3314 53.6973C18.7693 55.2594 18.7693 57.7921 20.3314 59.3542L29.1275 68.1503C30.6896 69.7124 33.2222 69.7124 34.7843 68.1503L44.4818 58.4528L53.6975 67.6685C55.2596 69.2306 57.7922 69.2306 59.3543 67.6685L68.1504 58.8724C69.7125 57.3103 69.7125 54.7777 68.1504 53.2156L58.9347 43.9999L68.1504 34.7842C69.7125 33.2221 69.7125 30.6894 68.1504 29.1273L59.3543 20.3312C57.7922 18.7691 55.2596 18.7691 53.6975 20.3312L44.4818 29.5469L34.7843 19.8495C33.2222 18.2874 30.6896 18.2874 29.1275 19.8495L20.3314 28.6456Z"/>
</mask>
<path fill-rule="evenodd" clip-rule="evenodd" d="M20.3314 28.6456C18.7693 30.2077 18.7693 32.7403 20.3314 34.3024L30.0288 43.9999L20.3314 53.6973C18.7693 55.2594 18.7693 57.7921 20.3314 59.3542L29.1275 68.1503C30.6896 69.7124 33.2222 69.7124 34.7843 68.1503L44.4818 58.4528L53.6975 67.6685C55.2596 69.2306 57.7922 69.2306 59.3543 67.6685L68.1504 58.8724C69.7125 57.3103 69.7125 54.7777 68.1504 53.2156L58.9347 43.9999L68.1504 34.7842C69.7125 33.2221 69.7125 30.6894 68.1504 29.1273L59.3543 20.3312C57.7922 18.7691 55.2596 18.7691 53.6975 20.3312L44.4818 29.5469L34.7843 19.8495C33.2222 18.2874 30.6896 18.2874 29.1275 19.8495L20.3314 28.6456Z" fill="#7A0202"/>
<path d="M20.3314 34.3024L21.0385 33.5953L20.3314 34.3024ZM30.0288 43.9999L30.7359 44.707L31.443 43.9999L30.7359 43.2928L30.0288 43.9999ZM44.4818 58.4528L45.1889 57.7457L44.4818 57.0386L43.7747 57.7457L44.4818 58.4528ZM58.9347 43.9999L58.2276 43.2928L57.5205 43.9999L58.2276 44.707L58.9347 43.9999ZM44.4818 29.5469L43.7747 30.254L44.4818 30.9611L45.1889 30.254L44.4818 29.5469ZM21.0385 33.5953C19.8669 32.4237 19.8669 30.5242 21.0385 29.3527L19.6243 27.9385C17.6716 29.8911 17.6716 33.0569 19.6243 35.0095L21.0385 33.5953ZM30.7359 43.2928L21.0385 33.5953L19.6243 35.0095L29.3217 44.707L30.7359 43.2928ZM21.0385 54.4044L30.7359 44.707L29.3217 43.2928L19.6243 52.9902L21.0385 54.4044ZM21.0385 58.6471C19.8669 57.4755 19.8669 55.576 21.0385 54.4044L19.6243 52.9902C17.6716 54.9429 17.6716 58.1087 19.6243 60.0613L21.0385 58.6471ZM29.8346 67.4432L21.0385 58.6471L19.6243 60.0613L28.4204 68.8574L29.8346 67.4432ZM34.0772 67.4432C32.9056 68.6148 31.0061 68.6148 29.8346 67.4432L28.4204 68.8574C30.373 70.81 33.5388 70.81 35.4914 68.8574L34.0772 67.4432ZM43.7747 57.7457L34.0772 67.4432L35.4914 68.8574L45.1889 59.1599L43.7747 57.7457ZM54.4046 66.9614L45.1889 57.7457L43.7747 59.1599L52.9904 68.3756L54.4046 66.9614ZM58.6472 66.9614C57.4757 68.133 55.5762 68.133 54.4046 66.9614L52.9904 68.3756C54.943 70.3283 58.1088 70.3283 60.0614 68.3756L58.6472 66.9614ZM67.4433 58.1653L58.6472 66.9614L60.0614 68.3756L68.8575 59.5795L67.4433 58.1653ZM67.4433 53.9227C68.6149 55.0943 68.6149 56.9938 67.4433 58.1653L68.8575 59.5795C70.8102 57.6269 70.8102 54.4611 68.8575 52.5085L67.4433 53.9227ZM58.2276 44.707L67.4433 53.9227L68.8575 52.5085L59.6418 43.2928L58.2276 44.707ZM67.4433 34.0771L58.2276 43.2928L59.6418 44.707L68.8575 35.4913L67.4433 34.0771ZM67.4433 29.8344C68.6149 31.006 68.6149 32.9055 67.4433 34.0771L68.8575 35.4913C70.8102 33.5387 70.8102 30.3728 68.8575 28.4202L67.4433 29.8344ZM58.6472 21.0383L67.4433 29.8344L68.8575 28.4202L60.0614 19.6241L58.6472 21.0383ZM54.4046 21.0383C55.5762 19.8668 57.4757 19.8668 58.6472 21.0383L60.0614 19.6241C58.1088 17.6715 54.943 17.6715 52.9904 19.6241L54.4046 21.0383ZM45.1889 30.254L54.4046 21.0383L52.9904 19.6241L43.7747 28.8398L45.1889 30.254ZM34.0772 20.5566L43.7747 30.254L45.1889 28.8398L35.4914 19.1424L34.0772 20.5566ZM29.8346 20.5566C31.0061 19.385 32.9056 19.385 34.0772 20.5566L35.4914 19.1424C33.5388 17.1897 30.373 17.1897 28.4204 19.1424L29.8346 20.5566ZM21.0385 29.3527L29.8346 20.5566L28.4204 19.1424L19.6243 27.9385L21.0385 29.3527Z" fill="white" mask="url(#path-2-inside-1_31_121)"/>
<mask id="path-4-inside-2_31_121" fill="white">
<path fill-rule="evenodd" clip-rule="evenodd" d="M24.1854 28.6457C22.6233 30.2078 22.6233 32.7404 24.1854 34.3025L33.8828 44L24.1854 53.6975C22.6233 55.2596 22.6233 57.7922 24.1854 59.3543L29.1274 64.2963C30.6894 65.8584 33.2221 65.8584 34.7842 64.2963L44.4817 54.5988L54.1791 64.2963C55.7412 65.8584 58.2739 65.8584 59.836 64.2963L64.778 59.3543C66.3401 57.7922 66.3401 55.2596 64.778 53.6975L55.0805 44L64.2962 34.7843C65.8583 33.2222 65.8583 30.6895 64.2962 29.1274L59.3542 24.1855C57.7921 22.6234 55.2595 22.6234 53.6974 24.1855L44.4817 33.4012L34.7842 23.7037C33.2221 22.1416 30.6894 22.1416 29.1274 23.7037L24.1854 28.6457Z"/>
</mask>
<path fill-rule="evenodd" clip-rule="evenodd" d="M24.1854 28.6457C22.6233 30.2078 22.6233 32.7404 24.1854 34.3025L33.8828 44L24.1854 53.6975C22.6233 55.2596 22.6233 57.7922 24.1854 59.3543L29.1274 64.2963C30.6894 65.8584 33.2221 65.8584 34.7842 64.2963L44.4817 54.5988L54.1791 64.2963C55.7412 65.8584 58.2739 65.8584 59.836 64.2963L64.778 59.3543C66.3401 57.7922 66.3401 55.2596 64.778 53.6975L55.0805 44L64.2962 34.7843C65.8583 33.2222 65.8583 30.6895 64.2962 29.1274L59.3542 24.1855C57.7921 22.6234 55.2595 22.6234 53.6974 24.1855L44.4817 33.4012L34.7842 23.7037C33.2221 22.1416 30.6894 22.1416 29.1274 23.7037L24.1854 28.6457Z" fill="#7A0202"/>
<path d="M24.1854 34.3025L24.8925 33.5954L24.1854 34.3025ZM33.8828 44L34.5899 44.7071L35.2971 44L34.5899 43.2929L33.8828 44ZM44.4817 54.5988L45.1888 53.8917L44.4817 53.1846L43.7746 53.8917L44.4817 54.5988ZM64.778 53.6975L65.4851 52.9904L64.778 53.6975ZM55.0805 44L54.3734 43.2929L53.6663 44L54.3734 44.7071L55.0805 44ZM44.4817 33.4012L43.7746 34.1083L44.4817 34.8154L45.1888 34.1083L44.4817 33.4012ZM24.8925 33.5954C23.7209 32.4239 23.7209 30.5244 24.8925 29.3528L23.4783 27.9386C21.5256 29.8912 21.5256 33.057 23.4783 35.0096L24.8925 33.5954ZM34.5899 43.2929L24.8925 33.5954L23.4783 35.0096L33.1757 44.7071L34.5899 43.2929ZM24.8925 54.4046L34.5899 44.7071L33.1757 43.2929L23.4783 52.9904L24.8925 54.4046ZM24.8925 58.6472C23.7209 57.4756 23.7209 55.5761 24.8925 54.4046L23.4783 52.9904C21.5256 54.943 21.5256 58.1088 23.4783 60.0614L24.8925 58.6472ZM29.8345 63.5892L24.8925 58.6472L23.4783 60.0614L28.4202 65.0034L29.8345 63.5892ZM34.0771 63.5892C32.9055 64.7608 31.006 64.7608 29.8345 63.5892L28.4202 65.0034C30.3729 66.956 33.5387 66.956 35.4913 65.0034L34.0771 63.5892ZM43.7746 53.8917L34.0771 63.5892L35.4913 65.0034L45.1888 55.3059L43.7746 53.8917ZM54.8862 63.5892L45.1888 53.8917L43.7746 55.3059L53.472 65.0034L54.8862 63.5892ZM59.1289 63.5892C57.9573 64.7608 56.0578 64.7608 54.8862 63.5892L53.472 65.0034C55.4246 66.956 58.5905 66.956 60.5431 65.0034L59.1289 63.5892ZM64.0709 58.6472L59.1289 63.5892L60.5431 65.0034L65.4851 60.0614L64.0709 58.6472ZM64.0709 54.4046C65.2424 55.5761 65.2424 57.4756 64.0709 58.6472L65.4851 60.0614C67.4377 58.1088 67.4377 54.943 65.4851 52.9904L64.0709 54.4046ZM54.3734 44.7071L64.0709 54.4046L65.4851 52.9904L55.7876 43.2929L54.3734 44.7071ZM63.5891 34.0772L54.3734 43.2929L55.7876 44.7071L65.0033 35.4914L63.5891 34.0772ZM63.5891 29.8346C64.7607 31.0061 64.7607 32.9056 63.5891 34.0772L65.0033 35.4914C66.9559 33.5388 66.9559 30.373 65.0033 28.4203L63.5891 29.8346ZM58.6471 24.8926L63.5891 29.8346L65.0033 28.4203L60.0613 23.4784L58.6471 24.8926ZM54.4045 24.8926C55.576 23.721 57.4755 23.721 58.6471 24.8926L60.0613 23.4784C58.1087 21.5257 54.9429 21.5257 52.9903 23.4784L54.4045 24.8926ZM45.1888 34.1083L54.4045 24.8926L52.9903 23.4784L43.7746 32.6941L45.1888 34.1083ZM34.0771 24.4108L43.7746 34.1083L45.1888 32.6941L35.4913 22.9966L34.0771 24.4108ZM29.8345 24.4108C31.006 23.2392 32.9055 23.2392 34.0771 24.4108L35.4913 22.9966C33.5387 21.044 30.3729 21.044 28.4202 22.9966L29.8345 24.4108ZM24.8925 29.3528L29.8345 24.4108L28.4202 22.9966L23.4783 27.9386L24.8925 29.3528Z" fill="white" mask="url(#path-4-inside-2_31_121)"/>
</svg>
