<svg width="85" height="85" viewBox="0 0 85 85" fill="none" xmlns="http://www.w3.org/2000/svg">
<circle cx="42.5" cy="42.5" r="42.5" fill="black"/>
<path d="M41 41C41 43.5992 39.4197 46.0747 36.6126 47.9461C33.8124 49.8129 29.8865 51 25.5 51C21.1135 51 17.1876 49.8129 14.3874 47.9461C11.5803 46.0747 10 43.5992 10 41C10 38.4008 11.5803 35.9253 14.3874 34.0539C17.1876 32.1871 21.1135 31 25.5 31C29.8865 31 33.8124 32.1871 36.6126 34.0539C39.4197 35.9253 41 38.4008 41 41Z" stroke="white" stroke-width="2"/>
<path d="M41 41C41 42.9478 39.5388 44.9313 36.6884 46.4861C33.8758 48.0202 29.922 49 25.5 49C21.078 49 17.1242 48.0202 14.3116 46.4861C11.4612 44.9313 10 42.9478 10 41C10 39.0522 11.4612 37.0687 14.3116 35.5139C17.1242 33.9798 21.078 33 25.5 33C29.922 33 33.8758 33.9798 36.6884 35.5139C39.5388 37.0687 41 39.0522 41 41Z" stroke="white" stroke-width="2"/>
<path d="M76 41C76 42.9478 74.5388 44.9313 71.6884 46.4861C68.8758 48.0202 64.922 49 60.5 49C56.078 49 52.1242 48.0202 49.3116 46.4861C46.4612 44.9313 45 42.9478 45 41C45 39.0522 46.4612 37.0687 49.3116 35.5139C52.1242 33.9798 56.078 33 60.5 33C64.922 33 68.8758 33.9798 71.6884 35.5139C74.5388 37.0687 76 39.0522 76 41Z" stroke="white" stroke-width="2"/>
<path d="M36.6 41C36.6 46.4774 31.9231 51 26.05 51C20.1769 51 15.5 46.4774 15.5 41C15.5 35.5226 20.1769 31 26.05 31C31.9231 31 36.6 35.5226 36.6 41Z" stroke="white" stroke-width="2"/>
<circle cx="23.3" cy="41" r="1.8" stroke="white" stroke-width="3"/>
<circle cx="32.0999" cy="39.9" r="1.5" stroke="white" stroke-width="1.4"/>
<path d="M76 41C76 43.5992 74.4197 46.0747 71.6126 47.9461C68.8124 49.8129 64.8865 51 60.5 51C56.1135 51 52.1876 49.8129 49.3874 47.9461C46.5803 46.0747 45 43.5992 45 41C45 38.4008 46.5803 35.9253 49.3874 34.0539C52.1876 32.1871 56.1135 31 60.5 31C64.8865 31 68.8124 32.1871 71.6126 34.0539C74.4197 35.9253 76 38.4008 76 41Z" stroke="white" stroke-width="2"/>
<path d="M71.6 41C71.6 46.4774 66.9231 51 61.05 51C55.1769 51 50.5 46.4774 50.5 41C50.5 35.5226 55.1769 31 61.05 31C66.9231 31 71.6 35.5226 71.6 41Z" stroke="white" stroke-width="2"/>
<circle cx="58.3" cy="41" r="1.8" stroke="white" stroke-width="3"/>
<circle cx="67.0999" cy="39.9" r="1.5" stroke="white" stroke-width="1.4"/>
</svg>
