<svg width="85" height="85" viewBox="0 0 85 85" fill="none" xmlns="http://www.w3.org/2000/svg">
<circle cx="42.5" cy="42.5" r="42.5" fill="black"/>
<mask id="path-2-inside-1_31_315" fill="white">
<path fill-rule="evenodd" clip-rule="evenodd" d="M25.9932 59.4107C28.2724 60.2315 30 60.8536 30 57.4955C30 56.1199 29.7101 54.2167 29.2112 52.1697C30.9383 53.3877 32 55.0422 32 56.8648C32 60.6076 27.5228 64 22 64C16.4772 64 12 60.6076 12 56.8648C12 55.02 13.0877 53.3474 14.8522 52.1254C14.3155 54.1892 14 56.11 14 57.4955C14 60.8748 15.8768 60.2235 18.2635 59.3952C19.485 58.9713 20.8401 58.501 22.1455 58.501C23.4668 58.501 24.805 58.9828 25.9932 59.4107ZM14.8522 52.1254C16.2947 46.5792 19.3352 40 22.1455 40C24.9632 40 27.8571 46.6143 29.2112 52.1697C27.3916 50.8865 24.8334 50.0879 22 50.0879C19.1994 50.0879 16.6676 50.8681 14.8522 52.1254Z"/>
</mask>
<path fill-rule="evenodd" clip-rule="evenodd" d="M25.9932 59.4107C28.2724 60.2315 30 60.8536 30 57.4955C30 56.1199 29.7101 54.2167 29.2112 52.1697C30.9383 53.3877 32 55.0422 32 56.8648C32 60.6076 27.5228 64 22 64C16.4772 64 12 60.6076 12 56.8648C12 55.02 13.0877 53.3474 14.8522 52.1254C14.3155 54.1892 14 56.11 14 57.4955C14 60.8748 15.8768 60.2235 18.2635 59.3952C19.485 58.9713 20.8401 58.501 22.1455 58.501C23.4668 58.501 24.805 58.9828 25.9932 59.4107ZM14.8522 52.1254C16.2947 46.5792 19.3352 40 22.1455 40C24.9632 40 27.8571 46.6143 29.2112 52.1697C27.3916 50.8865 24.8334 50.0879 22 50.0879C19.1994 50.0879 16.6676 50.8681 14.8522 52.1254Z" fill="white"/>
<path d="M25.9932 59.4107L26.6708 57.529L26.6708 57.529L25.9932 59.4107ZM18.2635 59.3952L17.6078 57.5057L17.6078 57.5057L18.2635 59.3952ZM28 57.4955C28 58.213 27.8995 58.4448 27.9003 58.4431C27.9119 58.4196 27.9641 58.3277 28.0834 58.2322C28.205 58.1349 28.3288 58.0878 28.4113 58.0692C28.4815 58.0534 28.497 58.0634 28.4267 58.0576C28.3569 58.0519 28.2421 58.034 28.0683 57.9903C27.7018 57.8982 27.267 57.7437 26.6708 57.529L25.3156 61.2924C25.859 61.4881 26.4948 61.7192 27.0932 61.8696C27.6667 62.0138 28.4676 62.1569 29.2912 61.9712C30.2607 61.7526 31.0339 61.1336 31.4886 60.2107C31.8846 59.4068 32 58.457 32 57.4955H28ZM27.2681 52.6433C27.7496 54.6187 28 56.3471 28 57.4955H32C32 55.8927 31.6707 53.8146 31.1543 51.6961L27.2681 52.6433ZM28.0585 53.8041C29.4288 54.7705 30 55.88 30 56.8648H34C34 54.2044 32.4478 52.0048 30.3638 50.5352L28.0585 53.8041ZM30 56.8648C30 57.9043 29.3648 59.1495 27.8948 60.2184C26.4482 61.2704 24.3657 62 22 62V66C25.1571 66 28.0747 65.0334 30.2473 63.4535C32.3967 61.8905 34 59.5682 34 56.8648H30ZM22 62C19.6343 62 17.5518 61.2704 16.1052 60.2184C14.6352 59.1495 14 57.9043 14 56.8648H10C10 59.5682 11.6033 61.8905 13.7527 63.4535C15.9253 65.0334 18.8429 66 22 66V62ZM14 56.8648C14 55.8686 14.5856 54.7428 15.9909 53.7696L13.7136 50.4812C11.5899 51.9519 10 54.1714 10 56.8648H14ZM16 57.4955C16 56.3542 16.2698 54.6205 16.7879 52.6288L12.9166 51.6219C12.3611 53.7578 12 55.8657 12 57.4955H16ZM17.6078 57.5057C16.9864 57.7214 16.5175 57.8822 16.1166 57.9799C15.6925 58.0834 15.5813 58.0523 15.6352 58.0633C15.6889 58.0742 15.7947 58.1076 15.9084 58.1916C16.0229 58.2763 16.0794 58.3635 16.0966 58.3958C16.1071 58.4155 16 58.205 16 57.4955H12C12 58.4757 12.1275 59.4509 12.5645 60.2731C13.065 61.2148 13.8834 61.789 14.8383 61.9831C15.6597 62.1501 16.4652 62.0121 17.0642 61.8661C17.6865 61.7144 18.3472 61.4831 18.9192 61.2846L17.6078 57.5057ZM22.1455 56.501C20.4414 56.501 18.7575 57.1067 17.6078 57.5057L18.9192 61.2846C20.2125 60.8358 21.2387 60.501 22.1455 60.501V56.501ZM26.6708 57.529C25.5507 57.1257 23.8775 56.501 22.1455 56.501V60.501C23.0561 60.501 24.0592 60.84 25.3156 61.2924L26.6708 57.529ZM16.7879 52.6288C17.4784 49.9737 18.5449 47.107 19.7365 44.95C20.3359 43.8652 20.9192 43.0475 21.4381 42.5282C21.9945 41.9712 22.2275 42 22.1455 42V38C20.6583 38 19.4574 38.8511 18.6083 39.7011C17.7216 40.5887 16.9277 41.7624 16.2353 43.0157C14.8436 45.5348 13.6686 48.7308 12.9166 51.6219L16.7879 52.6288ZM22.1455 42C22.0554 42 22.277 41.9635 22.8152 42.5159C23.3187 43.0327 23.8829 43.8497 24.4602 44.9385C25.6076 47.1024 26.6188 49.9795 27.2681 52.6433L31.1543 51.6961C30.4495 48.8045 29.3367 45.5967 27.9941 43.0647C27.3265 41.8054 26.5542 40.6216 25.6803 39.7246C24.8411 38.8633 23.6444 38 22.1455 38V42ZM22 52.0879C24.4796 52.0879 26.6214 52.7906 28.0585 53.8041L30.3638 50.5352C28.1618 48.9824 25.1872 48.0879 22 48.0879V52.0879ZM15.9909 53.7696C17.4282 52.7742 19.5499 52.0879 22 52.0879V48.0879C18.8489 48.0879 15.907 48.9621 13.7136 50.4812L15.9909 53.7696Z" fill="white" mask="url(#path-2-inside-1_31_315)"/>
<mask id="path-4-inside-2_31_315" fill="white">
<path fill-rule="evenodd" clip-rule="evenodd" d="M39.5341 57.5883C40.9805 58.2897 42.0769 58.8214 42.0769 55.9515C42.0769 55.4785 42.0471 54.9324 41.9909 54.3347C42.6283 55.0154 43 55.8338 43 56.7143C43 59.0812 40.3137 61 37 61C33.6863 61 31 59.0812 31 56.7143C31 55.8307 31.3743 55.0096 32.0159 54.3275C31.9553 54.928 31.9231 55.4766 31.9231 55.9515C31.9231 58.8395 33.1141 58.2828 34.6288 57.575C35.4039 57.2127 36.2639 56.8108 37.0923 56.8108C37.9309 56.8108 38.7801 57.2226 39.5341 57.5883ZM32.0159 54.3275C32.5121 49.4077 34.9115 41 37.0923 41C39.2742 41 41.5281 49.4159 41.9909 54.3347C40.9147 53.1854 39.0811 52.4286 37 52.4286C34.9233 52.4286 33.0929 53.1822 32.0159 54.3275Z"/>
</mask>
<path fill-rule="evenodd" clip-rule="evenodd" d="M39.5341 57.5883C40.9805 58.2897 42.0769 58.8214 42.0769 55.9515C42.0769 55.4785 42.0471 54.9324 41.9909 54.3347C42.6283 55.0154 43 55.8338 43 56.7143C43 59.0812 40.3137 61 37 61C33.6863 61 31 59.0812 31 56.7143C31 55.8307 31.3743 55.0096 32.0159 54.3275C31.9553 54.928 31.9231 55.4766 31.9231 55.9515C31.9231 58.8395 33.1141 58.2828 34.6288 57.575C35.4039 57.2127 36.2639 56.8108 37.0923 56.8108C37.9309 56.8108 38.7801 57.2226 39.5341 57.5883ZM32.0159 54.3275C32.5121 49.4077 34.9115 41 37.0923 41C39.2742 41 41.5281 49.4159 41.9909 54.3347C40.9147 53.1854 39.0811 52.4286 37 52.4286C34.9233 52.4286 33.0929 53.1822 32.0159 54.3275Z" fill="white"/>
<path d="M39.5341 57.5883L39.9705 56.6885L39.9705 56.6885L39.5341 57.5883ZM34.6288 57.575L35.0522 58.4809L35.0522 58.4809L34.6288 57.575ZM41.0769 55.9515C41.0769 56.6277 41.0093 56.9943 40.9439 57.1731C40.8907 57.3183 40.8973 57.2009 41.0574 57.1523C41.1376 57.1279 41.1146 57.1702 40.8623 57.0848C40.6277 57.0054 40.3489 56.872 39.9705 56.6885L39.0978 58.4881C39.4426 58.6553 39.8432 58.8513 40.221 58.9792C40.5811 59.1011 41.1033 59.2285 41.6385 59.066C42.2535 58.8792 42.6245 58.4004 42.8221 57.8602C43.0075 57.3534 43.0769 56.7103 43.0769 55.9515H41.0769ZM40.9953 54.4284C41.0495 55.0043 41.0769 55.5179 41.0769 55.9515H43.0769C43.0769 55.439 43.0448 54.8605 42.9865 54.241L40.9953 54.4284ZM41.2609 55.0182C41.7567 55.5477 42 56.1308 42 56.7143H44C44 55.5369 43.4999 54.4832 42.7208 53.6512L41.2609 55.0182ZM42 56.7143C42 57.491 41.561 58.2885 40.6614 58.931C39.7638 59.5722 38.4725 60 37 60V62C38.8412 62 40.5499 61.4684 41.8239 60.5585C43.0959 59.6499 44 58.3045 44 56.7143H42ZM37 60C35.5275 60 34.2362 59.5722 33.3386 58.931C32.439 58.2885 32 57.491 32 56.7143H30C30 58.3045 30.9041 59.6499 32.1761 60.5585C33.4501 61.4684 35.1588 62 37 62V60ZM32 56.7143C32 56.1288 32.245 55.5436 32.7443 55.0126L31.2874 53.6424C30.5037 54.4757 30 55.5327 30 56.7143H32ZM32.9231 55.9515C32.9231 55.519 32.9526 55.0053 33.0108 54.4278L31.0209 54.2271C30.958 54.8507 30.9231 55.4341 30.9231 55.9515H32.9231ZM34.2054 56.669C33.811 56.8534 33.511 56.9919 33.255 57.076C32.9824 57.1655 32.9249 57.1343 32.972 57.1472C33.103 57.183 33.1127 57.2817 33.063 57.156C32.9962 56.9867 32.9231 56.6281 32.9231 55.9515H30.9231C30.9231 56.7189 30.9988 57.3737 31.2027 57.8902C31.4237 58.4502 31.8258 58.907 32.4439 59.0762C32.9781 59.2224 33.5023 59.0998 33.879 58.9762C34.2723 58.847 34.6892 58.6505 35.0522 58.4809L34.2054 56.669ZM37.0923 55.8108C35.999 55.8108 34.9271 56.3317 34.2054 56.669L35.0522 58.4809C35.8808 58.0937 36.5288 57.8108 37.0923 57.8108V55.8108ZM39.9705 56.6885C39.2682 56.3479 38.2036 55.8108 37.0923 55.8108V57.8108C37.6581 57.8108 38.2919 58.0973 39.0978 58.4881L39.9705 56.6885ZM33.0108 54.4278C33.2508 52.0481 33.9573 48.7916 34.868 46.1441C35.3246 44.8164 35.8157 43.6923 36.2974 42.9197C36.5393 42.5318 36.7529 42.2749 36.9248 42.1253C37.1006 41.9723 37.1516 42 37.0923 42V40C36.4878 40 35.9867 40.2904 35.612 40.6164C35.2333 40.9459 34.8978 41.3843 34.6003 41.8615C34.0033 42.819 33.4545 44.1044 32.9767 45.4936C32.0184 48.2798 31.2771 51.6871 31.0209 54.2271L33.0108 54.4278ZM37.0923 42C37.031 42 37.0783 41.9706 37.2482 42.1206C37.4151 42.2681 37.6231 42.5231 37.8582 42.9106C38.3265 43.6824 38.7993 44.8062 39.2363 46.1352C40.1074 48.7842 40.771 52.0446 40.9953 54.4284L42.9865 54.241C42.748 51.706 42.0532 48.299 41.1362 45.5104C40.6792 44.1206 40.1505 42.833 39.5681 41.8731C39.2778 41.3947 38.9481 40.9538 38.5724 40.6218C38.1995 40.2924 37.6991 40 37.0923 40V42ZM37 53.4286C38.8607 53.4286 40.4091 54.1084 41.2609 55.0182L42.7208 53.6512C41.4203 52.2623 39.3015 51.4286 37 51.4286V53.4286ZM32.7443 55.0126C33.5973 54.1056 35.1434 53.4286 37 53.4286V51.4286C34.7032 51.4286 32.5886 52.2589 31.2874 53.6424L32.7443 55.0126Z" fill="white" mask="url(#path-4-inside-2_31_315)"/>
<mask id="path-6-inside-3_31_315" fill="white">
<path fill-rule="evenodd" clip-rule="evenodd" d="M52.1105 56.4496C53.6568 57.1452 54.8289 57.6724 54.8289 54.8265C54.8289 54.5393 54.817 54.225 54.7939 53.8884C55.5533 54.6248 56 55.5263 56 56.5C56 58.9853 53.0899 61 49.5 61C45.9101 61 43 58.9853 43 56.5C43 55.6194 43.3653 54.798 43.9968 54.1042C43.9815 54.3601 43.9737 54.6016 43.9737 54.8265C43.9737 57.6904 45.247 57.1384 46.8663 56.4364C47.695 56.0772 48.6143 55.6786 49.5 55.6786C50.3965 55.6786 51.3043 56.087 52.1105 56.4496ZM43.9968 54.1042C44.2752 49.4347 47.0198 40 49.5 40C51.9425 40 54.4694 49.1505 54.7939 53.8884C53.6152 52.7452 51.6833 52 49.5 52C47.1821 52 45.1475 52.84 43.9968 54.1042Z"/>
</mask>
<path fill-rule="evenodd" clip-rule="evenodd" d="M52.1105 56.4496C53.6568 57.1452 54.8289 57.6724 54.8289 54.8265C54.8289 54.5393 54.817 54.225 54.7939 53.8884C55.5533 54.6248 56 55.5263 56 56.5C56 58.9853 53.0899 61 49.5 61C45.9101 61 43 58.9853 43 56.5C43 55.6194 43.3653 54.798 43.9968 54.1042C43.9815 54.3601 43.9737 54.6016 43.9737 54.8265C43.9737 57.6904 45.247 57.1384 46.8663 56.4364C47.695 56.0772 48.6143 55.6786 49.5 55.6786C50.3965 55.6786 51.3043 56.087 52.1105 56.4496ZM43.9968 54.1042C44.2752 49.4347 47.0198 40 49.5 40C51.9425 40 54.4694 49.1505 54.7939 53.8884C53.6152 52.7452 51.6833 52 49.5 52C47.1821 52 45.1475 52.84 43.9968 54.1042Z" fill="white"/>
<path d="M52.1105 56.4496L52.5207 55.5376L52.5207 55.5376L52.1105 56.4496ZM46.8663 56.4364L47.264 57.3539L47.264 57.3539L46.8663 56.4364ZM53.8289 54.8265C53.8289 55.4926 53.757 55.8452 53.6914 56.0117C53.643 56.1343 53.6524 56.0391 53.7785 56.0036C53.8223 55.9912 53.7624 56.022 53.4871 55.9356C53.228 55.8542 52.9231 55.7187 52.5207 55.5376L51.7003 57.3616C52.071 57.5284 52.4925 57.7195 52.888 57.8437C53.2674 57.9628 53.7906 58.078 54.3207 57.9287C54.9331 57.7562 55.3322 57.3026 55.5519 56.7454C55.7543 56.2321 55.8289 55.5834 55.8289 54.8265H53.8289ZM53.7963 53.9567C53.8181 54.2751 53.8289 54.5663 53.8289 54.8265H55.8289C55.8289 54.5124 55.8159 54.1748 55.7916 53.82L53.7963 53.9567ZM54.0978 54.6062C54.7057 55.1958 55 55.8511 55 56.5H57C57 55.2014 56.4008 54.0537 55.4901 53.1705L54.0978 54.6062ZM55 56.5C55 57.3217 54.5199 58.1724 53.527 58.8598C52.5379 59.5445 51.1173 60 49.5 60V62C51.4726 62 53.3019 61.4481 54.6654 60.5042C56.025 59.5629 57 58.1636 57 56.5H55ZM49.5 60C47.8827 60 46.4621 59.5445 45.473 58.8598C44.4801 58.1724 44 57.3217 44 56.5H42C42 58.1636 42.975 59.5629 44.3346 60.5042C45.6981 61.4481 47.5274 62 49.5 62V60ZM44 56.5C44 55.9113 44.2411 55.3214 44.7363 54.7773L43.2573 53.4311C42.4895 54.2745 42 55.3276 42 56.5H44ZM44.9737 54.8265C44.9737 54.6245 44.9807 54.403 44.995 54.1637L42.9986 54.0447C42.9823 54.3171 42.9737 54.5788 42.9737 54.8265H44.9737ZM46.4685 55.5189C46.0489 55.7009 45.7216 55.8413 45.4398 55.9271C45.1429 56.0176 45.0485 55.9968 45.0589 55.9994C45.1522 56.0231 45.1628 56.0986 45.1181 55.9934C45.0513 55.8366 44.9737 55.4924 44.9737 54.8265H42.9737C42.9737 55.5925 43.0552 56.2533 43.2778 56.7765C43.5224 57.3514 43.9525 57.7819 44.5666 57.9379C45.0977 58.0728 45.6253 57.9614 46.0225 57.8404C46.4349 57.7148 46.874 57.523 47.264 57.3539L46.4685 55.5189ZM49.5 54.6786C48.3676 54.6786 47.249 55.1806 46.4685 55.5189L47.264 57.3539C48.141 56.9738 48.861 56.6786 49.5 56.6786V54.6786ZM52.5207 55.5376C51.761 55.1959 50.6505 54.6786 49.5 54.6786V56.6786C50.1424 56.6786 50.8476 56.9781 51.7003 57.3616L52.5207 55.5376ZM44.995 54.1637C45.1275 51.9416 45.8587 48.508 46.8665 45.6317C47.3704 44.1934 47.9248 42.9495 48.4761 42.0847C48.7527 41.651 49.0028 41.3538 49.212 41.1751C49.4253 40.9932 49.5166 41 49.5 41V39C48.8634 39 48.3263 39.3017 47.9137 39.6539C47.497 40.0095 47.1236 40.4859 46.7897 41.0096C46.1202 42.0597 45.506 43.4663 44.979 44.9704C43.9249 47.9788 43.1445 51.5974 42.9986 54.0447L44.995 54.1637ZM49.5 41C49.4816 41 49.5655 40.9914 49.7656 41.1625C49.9635 41.3317 50.2015 41.616 50.4652 42.0358C50.9911 42.8728 51.5165 44.0815 51.9943 45.4889C52.9484 48.2996 53.6408 51.6863 53.7963 53.9567L55.7916 53.82C55.6226 51.3525 54.8892 47.7951 53.8882 44.846C53.3883 43.3736 52.8038 41.9986 52.1587 40.9718C51.837 40.4597 51.4743 39.9921 51.0652 39.6424C50.6584 39.2945 50.129 39 49.5 39V41ZM49.5 53C51.4768 53 53.1407 53.6781 54.0978 54.6062L55.4901 53.1705C54.0898 51.8124 51.8899 51 49.5 51V53ZM44.7363 54.7773C45.6567 53.7662 47.3966 53 49.5 53V51C46.9676 51 44.6384 51.9138 43.2573 53.4311L44.7363 54.7773Z" fill="white" mask="url(#path-6-inside-3_31_315)"/>
<mask id="path-8-inside-4_31_315" fill="white">
<path fill-rule="evenodd" clip-rule="evenodd" d="M62.8175 53.6215C64.1402 54.1552 65.1429 54.5597 65.1429 52.3761C65.1429 51.9503 65.1047 51.4467 65.0335 50.8923C65.6431 51.4174 66 52.0535 66 52.7391C66 54.5401 63.5376 56 60.5 56C57.4624 56 55 54.5401 55 52.7391C55 52.0503 55.3602 51.4114 55.9751 50.8849C55.8984 51.4423 55.8571 51.9484 55.8571 52.3761C55.8571 54.5735 56.9464 54.15 58.3315 53.6114C59.0404 53.3357 59.8268 53.03 60.5844 53.03C61.3513 53.03 62.1279 53.3433 62.8175 53.6215ZM55.9751 50.8849C56.494 47.1137 58.6347 41 60.5844 41C62.5354 41 64.5493 47.1217 65.0335 50.8923C64.0418 50.0382 62.3812 49.4783 60.5 49.4783C58.6242 49.4783 56.9678 50.035 55.9751 50.8849Z"/>
</mask>
<path fill-rule="evenodd" clip-rule="evenodd" d="M62.8175 53.6215C64.1402 54.1552 65.1429 54.5597 65.1429 52.3761C65.1429 51.9503 65.1047 51.4467 65.0335 50.8923C65.6431 51.4174 66 52.0535 66 52.7391C66 54.5401 63.5376 56 60.5 56C57.4624 56 55 54.5401 55 52.7391C55 52.0503 55.3602 51.4114 55.9751 50.8849C55.8984 51.4423 55.8571 51.9484 55.8571 52.3761C55.8571 54.5735 56.9464 54.15 58.3315 53.6114C59.0404 53.3357 59.8268 53.03 60.5844 53.03C61.3513 53.03 62.1279 53.3433 62.8175 53.6215ZM55.9751 50.8849C56.494 47.1137 58.6347 41 60.5844 41C62.5354 41 64.5493 47.1217 65.0335 50.8923C64.0418 50.0382 62.3812 49.4783 60.5 49.4783C58.6242 49.4783 56.9678 50.035 55.9751 50.8849Z" fill="white"/>
<path d="M62.8175 53.6215L62.4433 54.5489L62.4433 54.5489L62.8175 53.6215ZM58.3315 53.6114L58.6939 54.5434L58.6939 54.5434L58.3315 53.6114ZM64.1429 52.3761C64.1429 52.8697 64.0824 53.091 64.0501 53.1645C64.0387 53.1905 64.045 53.1648 64.0882 53.126C64.1351 53.0839 64.1894 53.0588 64.2312 53.0483C64.2824 53.0354 64.2409 53.0616 64.0099 52.9966C63.7931 52.9355 63.5368 52.8334 63.1916 52.6941L62.4433 54.5489C62.7595 54.6764 63.1246 54.825 63.4678 54.9217C63.7968 55.0143 64.254 55.1054 64.7211 54.9873C65.2686 54.849 65.66 54.472 65.881 53.9695C66.078 53.5214 66.1429 52.9744 66.1429 52.3761H64.1429ZM64.0417 51.0197C64.1093 51.5465 64.1429 52.0055 64.1429 52.3761H66.1429C66.1429 51.8952 66.1001 51.347 66.0254 50.765L64.0417 51.0197ZM64.3809 51.6501C64.8407 52.046 65 52.4265 65 52.7391H67C67 51.6805 66.4456 50.7887 65.6861 50.1346L64.3809 51.6501ZM65 52.7391C65 53.1444 64.7169 53.688 63.8791 54.1847C63.0631 54.6685 61.8708 55 60.5 55V57C62.1668 57 63.7244 56.6015 64.8991 55.9051C66.0519 55.2216 67 54.1348 67 52.7391H65ZM60.5 55C59.1292 55 57.9369 54.6685 57.1209 54.1847C56.2831 53.688 56 53.1444 56 52.7391H54C54 54.1348 54.9481 55.2216 56.1009 55.9051C57.2756 56.6015 58.8332 57 60.5 57V55ZM56 52.7391C56 52.4252 56.1608 52.0424 56.6255 51.6445L55.3247 50.1253C54.5596 50.7804 54 51.6755 54 52.7391H56ZM56.8571 52.3761C56.8571 52.0077 56.8931 51.5494 56.9658 51.0212L54.9844 50.7486C54.9037 51.3351 54.8571 51.8891 54.8571 52.3761H56.8571ZM57.9691 52.6794C57.6092 52.8193 57.3335 52.9254 57.097 52.99C56.8472 53.0582 56.7756 53.0399 56.797 53.0447C56.8231 53.0507 56.8687 53.068 56.9126 53.1044C56.9544 53.139 56.9623 53.1641 56.9525 53.1433C56.9221 53.0792 56.8571 52.8676 56.8571 52.3761H54.8571C54.8571 52.9833 54.9284 53.5428 55.1455 54.0005C55.3905 54.517 55.8089 54.8709 56.3528 54.9948C56.8196 55.1011 57.28 55.0133 57.6241 54.9193C57.9814 54.8216 58.3612 54.6728 58.6939 54.5434L57.9691 52.6794ZM60.5844 52.03C59.6044 52.03 58.6363 52.4199 57.9691 52.6794L58.6939 54.5434C59.4445 54.2516 60.0492 54.03 60.5844 54.03V52.03ZM63.1916 52.6941C62.5419 52.432 61.5804 52.03 60.5844 52.03V54.03C61.1222 54.03 61.7139 54.2546 62.4433 54.5489L63.1916 52.6941ZM56.9658 51.0212C57.2131 49.2237 57.8544 46.8372 58.6646 44.917C59.071 43.9537 59.499 43.1582 59.9092 42.6213C60.3674 42.0217 60.6048 42 60.5844 42V40C59.5892 40 58.8278 40.7425 58.3201 41.407C57.7643 42.1344 57.2592 43.1029 56.8219 44.1395C55.9445 46.2189 55.256 48.7749 54.9844 50.7486L56.9658 51.0212ZM60.5844 42C60.5578 42 60.7875 42.0145 61.2322 42.6123C61.6303 43.1475 62.0425 43.9421 62.4317 44.9064C63.2071 46.8277 63.8103 49.2177 64.0417 51.0197L66.0254 50.765C65.7726 48.7963 65.1267 46.2402 64.2863 44.1579C63.8676 43.1205 63.3803 42.149 62.8369 41.4186C62.3402 40.7508 61.5865 40 60.5844 40V42ZM60.5 50.4783C62.2127 50.4783 63.6181 50.9931 64.3809 51.6501L65.6861 50.1346C64.4655 49.0834 62.5497 48.4783 60.5 48.4783V50.4783ZM56.6255 51.6445C57.39 50.99 58.7926 50.4783 60.5 50.4783V48.4783C58.4559 48.4783 56.5456 49.08 55.3247 50.1253L56.6255 51.6445Z" fill="white" mask="url(#path-8-inside-4_31_315)"/>
<mask id="path-10-inside-5_31_315" fill="white">
<path fill-rule="evenodd" clip-rule="evenodd" d="M71.4974 50.007C72.3521 50.4724 73 50.8252 73 48.921C73 48.4242 72.9559 47.8062 72.8756 47.123C73.5717 47.7469 74 48.5966 74 49.533C74 51.4478 72.2091 53 70 53C67.7909 53 66 51.4478 66 49.533C66 48.5923 66.4323 47.7391 67.134 47.1145C67.0477 47.801 67 48.4222 67 48.921C67 50.8372 67.7038 50.4679 68.5988 49.9982C69.0569 49.7578 69.565 49.4911 70.0545 49.4911C70.5501 49.4911 71.0519 49.7644 71.4974 50.007ZM67.134 47.1145C67.5491 43.8135 68.8575 39 70.0545 39C71.2526 39 72.4874 43.8218 72.8756 47.123C72.1483 46.4713 71.1288 46.066 70 46.066C68.8762 46.066 67.8606 46.4677 67.134 47.1145Z"/>
</mask>
<path fill-rule="evenodd" clip-rule="evenodd" d="M71.4974 50.007C72.3521 50.4724 73 50.8252 73 48.921C73 48.4242 72.9559 47.8062 72.8756 47.123C73.5717 47.7469 74 48.5966 74 49.533C74 51.4478 72.2091 53 70 53C67.7909 53 66 51.4478 66 49.533C66 48.5923 66.4323 47.7391 67.134 47.1145C67.0477 47.801 67 48.4222 67 48.921C67 50.8372 67.7038 50.4679 68.5988 49.9982C69.0569 49.7578 69.565 49.4911 70.0545 49.4911C70.5501 49.4911 71.0519 49.7644 71.4974 50.007ZM67.134 47.1145C67.5491 43.8135 68.8575 39 70.0545 39C71.2526 39 72.4874 43.8218 72.8756 47.123C72.1483 46.4713 71.1288 46.066 70 46.066C68.8762 46.066 67.8606 46.4677 67.134 47.1145Z" fill="white"/>
<path d="M71.4974 50.007L71.0192 50.8853L71.0192 50.8853L71.4974 50.007ZM68.5988 49.9982L69.0635 50.8837L69.0635 50.8837L68.5988 49.9982ZM72 48.921C72 49.1324 71.9909 49.2963 71.9768 49.4213C71.9625 49.5482 71.9447 49.6186 71.9346 49.6497C71.9241 49.6819 71.9301 49.6465 71.979 49.5872C72.0048 49.5561 72.0409 49.5202 72.0891 49.4863C72.1377 49.452 72.1911 49.425 72.2465 49.4061C72.3573 49.3683 72.4425 49.374 72.472 49.3777C72.4983 49.3809 72.4941 49.3842 72.4481 49.3667C72.404 49.35 72.3437 49.3228 72.2597 49.2802C72.1756 49.2376 72.0853 49.1885 71.9757 49.1288L71.0192 50.8853C71.2147 50.9917 71.48 51.1383 71.7375 51.2362C71.9744 51.3263 72.4155 51.4616 72.892 51.2991C73.4374 51.1131 73.7088 50.6603 73.8362 50.2692C73.9591 49.8922 74 49.4328 74 48.921H72ZM71.8824 47.2398C71.9601 47.9003 72 48.4767 72 48.921H74C74 48.3718 73.9517 47.712 73.8687 47.0063L71.8824 47.2398ZM72.2082 47.8677C72.72 48.3264 73 48.9156 73 49.533H75C75 48.2776 74.4234 47.1673 73.543 46.3783L72.2082 47.8677ZM73 49.533C73 50.766 71.7959 52 70 52V54C72.6224 54 75 52.1295 75 49.533H73ZM70 52C68.2041 52 67 50.766 67 49.533H65C65 52.1295 67.3776 54 70 54V52ZM67 49.533C67 48.9129 67.2826 48.321 67.7989 47.8614L66.4691 46.3675C65.582 47.1572 65 48.2717 65 49.533H67ZM68 48.921C68 48.4785 68.0429 47.9021 68.1262 47.2392L66.1418 46.9897C66.0525 47.7 66 48.3658 66 48.921H68ZM68.1341 49.1127C68.0196 49.1728 67.9236 49.2231 67.8338 49.2671C67.7441 49.3109 67.6769 49.3403 67.6255 49.3593C67.5723 49.3789 67.558 49.379 67.5724 49.3772C67.589 49.375 67.6597 49.3684 67.7576 49.3985C67.8071 49.4137 67.857 49.4364 67.9041 49.4668C67.9509 49.4971 67.9877 49.5303 68.0151 49.561C68.068 49.6201 68.0767 49.6586 68.0674 49.6322C68.0581 49.6059 68.0398 49.5399 68.0247 49.4158C68.0098 49.2937 68 49.1318 68 48.921H66C66 49.4393 66.0447 49.9089 66.1805 50.2954C66.3257 50.7082 66.6233 51.1421 67.1699 51.3102C67.6377 51.454 68.0714 51.3265 68.3174 51.2358C68.5829 51.1379 68.8569 50.9921 69.0635 50.8837L68.1341 49.1127ZM70.0545 48.4911C69.2698 48.4911 68.5295 48.9052 68.1341 49.1127L69.0635 50.8837C69.5843 50.6104 69.8602 50.4911 70.0545 50.4911V48.4911ZM71.9757 49.1288C71.5913 48.9195 70.8539 48.4911 70.0545 48.4911V50.4911C70.2462 50.4911 70.5124 50.6093 71.0192 50.8853L71.9757 49.1288ZM68.1262 47.2392C68.3268 45.644 68.745 43.6785 69.2515 42.1303C69.5067 41.3502 69.7688 40.7244 70.0123 40.3129C70.1351 40.1051 70.2274 39.9968 70.2768 39.9516C70.3315 39.9017 70.2522 40 70.0545 40V38C69.5576 38 69.1756 38.2487 68.928 38.4749C68.6751 38.7059 68.4655 38.9994 68.2909 39.2945C67.9394 39.8887 67.6241 40.6725 67.3506 41.5084C66.7998 43.1922 66.3563 45.2839 66.1418 46.9897L68.1262 47.2392ZM70.0545 40C69.8548 40 69.7731 39.8998 69.824 39.947C69.8706 39.9902 69.9602 40.0969 70.0798 40.3044C70.3167 40.7153 70.5697 41.3411 70.8145 42.1225C71.3002 43.6728 71.6945 45.6416 71.8824 47.2398L73.8687 47.0063C73.6685 45.3033 73.2512 43.2105 72.723 41.5246C72.4609 40.6879 72.1563 39.9019 71.8125 39.3056C71.6418 39.0094 71.4354 38.7136 71.1837 38.4803C70.9362 38.2509 70.5539 38 70.0545 38V40ZM70 47.066C70.8914 47.066 71.6709 47.3862 72.2082 47.8677L73.543 46.3783C72.6257 45.5563 71.3661 45.066 70 45.066V47.066ZM67.7989 47.8614C68.3359 47.3834 69.1126 47.066 70 47.066V45.066C68.6398 45.066 67.3854 45.552 66.4692 46.3675L67.7989 47.8614Z" fill="white" mask="url(#path-10-inside-5_31_315)"/>
<path d="M30.5 42C30.5 45.5034 27.0135 48.5 22.5 48.5C17.9865 48.5 14.5 45.5034 14.5 42C14.5 38.4966 17.9865 35.5 22.5 35.5C27.0135 35.5 30.5 38.4966 30.5 42Z" stroke="white"/>
<path d="M42.5 41C42.5 44.0006 39.8521 46.5 36.5 46.5C33.1479 46.5 30.5 44.0006 30.5 41C30.5 37.9994 33.1479 35.5 36.5 35.5C39.8521 35.5 42.5 37.9994 42.5 41Z" stroke="white"/>
<path d="M54.5 41C54.5 44.0006 51.8521 46.5 48.5 46.5C45.1479 46.5 42.5 44.0006 42.5 41C42.5 37.9994 45.1479 35.5 48.5 35.5C51.8521 35.5 54.5 37.9994 54.5 41Z" stroke="white"/>
<path d="M66.5 40.5C66.5 43.2214 64.0794 45.5 61 45.5C57.9206 45.5 55.5 43.2214 55.5 40.5C55.5 37.7786 57.9206 35.5 61 35.5C64.0794 35.5 66.5 37.7786 66.5 40.5Z" stroke="white"/>
<circle cx="70.5" cy="40.5" r="4" stroke="white"/>
<mask id="path-17-inside-6_31_315" fill="white">
<path d="M14 29H31V43H14V29Z"/>
</mask>
<path d="M15 43V29H13V43H15Z" fill="white" mask="url(#path-17-inside-6_31_315)"/>
<mask id="path-19-inside-7_31_315" fill="white">
<path d="M30 26H47V42H30V26Z"/>
</mask>
<path d="M31 42V26H29V42H31Z" fill="white" mask="url(#path-19-inside-7_31_315)"/>
<mask id="path-21-inside-8_31_315" fill="white">
<path d="M66 30H75V41H66V30Z"/>
</mask>
<path d="M74 30V41H76V30H74Z" fill="white" mask="url(#path-21-inside-8_31_315)"/>
<mask id="path-23-inside-9_31_315" fill="white">
<path d="M42 26H59V42H42V26Z"/>
</mask>
<path d="M43 42V26H41V42H43Z" fill="white" mask="url(#path-23-inside-9_31_315)"/>
<mask id="path-25-inside-10_31_315" fill="white">
<path d="M54 26H71V42H54V26Z"/>
</mask>
<path d="M55 42V26H53V42H55Z" fill="white" mask="url(#path-25-inside-10_31_315)"/>
<mask id="path-27-inside-11_31_315" fill="white">
<path d="M66 26H83V43H66V26Z"/>
</mask>
<path d="M67 43V26H65V43H67Z" fill="white" mask="url(#path-27-inside-11_31_315)"/>
<path fill-rule="evenodd" clip-rule="evenodd" d="M73.9544 28C73.9846 27.8665 74 27.7325 74 27.6C74 26.3608 72.6528 25 70.5 25C68.3472 25 67 26.3608 67 27.6C67 27.7325 67.0154 27.8665 67.0456 28H66.0275C66.0093 27.8687 66 27.7352 66 27.6C66 25.6118 68.0147 24 70.5 24C72.9853 24 75 25.6118 75 27.6C75 27.7352 74.9907 27.8687 74.9725 28H73.9544Z" fill="white"/>
<path fill-rule="evenodd" clip-rule="evenodd" d="M65.9409 27C65.9804 26.8332 66 26.666 66 26.5C66 25.6783 65.5199 24.8276 64.527 24.1402C63.5379 23.4555 62.1173 23 60.5 23C58.8827 23 57.4621 23.4555 56.473 24.1402C55.4801 24.8276 55 25.6783 55 26.5C55 26.666 55.0196 26.8332 55.0591 27H54.0397C54.0135 26.8358 54 26.669 54 26.5C54 24.0147 56.9101 22 60.5 22C64.0899 22 67 24.0147 67 26.5C67 26.669 66.9865 26.8358 66.9603 27H65.9409Z" fill="white"/>
<path fill-rule="evenodd" clip-rule="evenodd" d="M53.9409 26C53.9804 25.8332 54 25.666 54 25.5C54 24.6783 53.5199 23.8276 52.527 23.1402C51.5379 22.4555 50.1173 22 48.5 22C46.8827 22 45.4621 22.4555 44.473 23.1402C43.4801 23.8276 43 24.6783 43 25.5C43 25.666 43.0196 25.8332 43.0591 26H42.0397C42.0135 25.8358 42 25.669 42 25.5C42 23.0147 44.9101 21 48.5 21C52.0899 21 55 23.0147 55 25.5C55 25.669 54.9865 25.8358 54.9603 26H53.9409Z" fill="white"/>
<path fill-rule="evenodd" clip-rule="evenodd" d="M41.9409 27C41.9804 26.8332 42 26.666 42 26.5C42 25.6783 41.5199 24.8276 40.527 24.1402C39.5379 23.4555 38.1173 23 36.5 23C34.8827 23 33.4621 23.4555 32.473 24.1402C31.4801 24.8276 31 25.6783 31 26.5C31 26.666 31.0196 26.8332 31.0591 27H30.0397C30.0135 26.8358 30 26.669 30 26.5C30 24.0147 32.9101 22 36.5 22C40.0899 22 43 24.0147 43 26.5C43 26.669 42.9865 26.8358 42.9603 27H41.9409Z" fill="white"/>
<path fill-rule="evenodd" clip-rule="evenodd" d="M29.9094 26C29.9711 25.8266 30 25.6588 30 25.5C30 24.8103 29.4545 23.9493 28.0425 23.2018C26.6753 22.478 24.7174 22 22.5 22C20.2826 22 18.3247 22.478 16.9575 23.2018C15.5455 23.9493 15 24.8103 15 25.5C15 25.6588 15.0289 25.8266 15.0906 26H14.0519C14.0176 25.8358 14 25.669 14 25.5C14 23.0147 17.8056 21 22.5 21C27.1944 21 31 23.0147 31 25.5C31 25.669 30.9824 25.8358 30.9481 26H29.9094Z" fill="white"/>
</svg>
