<svg width="85" height="85" viewBox="0 0 85 85" fill="none" xmlns="http://www.w3.org/2000/svg">
<circle r="42.5" transform="matrix(1 0 0 -1 42.5 42.5)" fill="black"/>
<ellipse rx="1.5" ry="5.52" transform="matrix(1 0 0 -1 44.5 28.5)" fill="white"/>
<ellipse rx="1.5" ry="5.52" transform="matrix(1 0 0 -1 31.5 28.5)" fill="white"/>
<mask id="path-4-inside-1_31_260" fill="white">
<path fill-rule="evenodd" clip-rule="evenodd" d="M31.4921 23.2264C31.9993 24.806 32.2857 26.5991 32.2857 28.5C32.2857 30.4009 31.9993 32.194 31.4921 33.7736C32.6795 37.472 35.077 40 37.8413 40C40.5697 40 42.9409 37.537 44.1438 33.9166C43.6671 32.3025 43.3968 30.4584 43.3968 28.5C43.3968 26.5416 43.6671 24.6975 44.1438 23.0834C42.9409 19.463 40.5697 17 37.8413 17C35.077 17 32.6795 19.528 31.4921 23.2264ZM55.3256 23.0075C54.2495 19.4286 52.1543 17 49.746 17C47.3207 17 45.213 19.463 44.1438 23.0834C44.6801 24.6975 44.9841 26.5416 44.9841 28.5C44.9841 30.4584 44.6801 32.3025 44.1438 33.9166C45.213 37.537 47.3207 40 49.746 40C52.1543 40 54.2495 37.5714 55.3256 33.9925C54.8042 32.3605 54.5079 30.4892 54.5079 28.5C54.5079 26.5108 54.8042 24.6395 55.3256 23.0075ZM55.3256 23.0075C55.8164 24.6395 56.0952 26.5108 56.0952 28.5C56.0952 30.4892 55.8164 32.3605 55.3256 33.9925C56.4691 37.5714 58.6951 40 61.254 40C64.9797 40 68 34.8513 68 28.5C68 22.1487 64.9797 17 61.254 17C58.6951 17 56.4691 19.4286 55.3256 23.0075ZM30.6984 28.5C30.6984 26.5991 30.9849 24.806 31.4921 23.2264C30.3046 19.528 27.9071 17 25.1429 17C21.198 17 18 22.1487 18 28.5C18 34.8513 21.198 40 25.1429 40C27.9071 40 30.3046 37.472 31.4921 33.7736C30.9849 32.194 30.6984 30.4009 30.6984 28.5Z"/>
</mask>
<path fill-rule="evenodd" clip-rule="evenodd" d="M31.4921 23.2264C31.9993 24.806 32.2857 26.5991 32.2857 28.5C32.2857 30.4009 31.9993 32.194 31.4921 33.7736C32.6795 37.472 35.077 40 37.8413 40C40.5697 40 42.9409 37.537 44.1438 33.9166C43.6671 32.3025 43.3968 30.4584 43.3968 28.5C43.3968 26.5416 43.6671 24.6975 44.1438 23.0834C42.9409 19.463 40.5697 17 37.8413 17C35.077 17 32.6795 19.528 31.4921 23.2264ZM55.3256 23.0075C54.2495 19.4286 52.1543 17 49.746 17C47.3207 17 45.213 19.463 44.1438 23.0834C44.6801 24.6975 44.9841 26.5416 44.9841 28.5C44.9841 30.4584 44.6801 32.3025 44.1438 33.9166C45.213 37.537 47.3207 40 49.746 40C52.1543 40 54.2495 37.5714 55.3256 33.9925C54.8042 32.3605 54.5079 30.4892 54.5079 28.5C54.5079 26.5108 54.8042 24.6395 55.3256 23.0075ZM55.3256 23.0075C55.8164 24.6395 56.0952 26.5108 56.0952 28.5C56.0952 30.4892 55.8164 32.3605 55.3256 33.9925C56.4691 37.5714 58.6951 40 61.254 40C64.9797 40 68 34.8513 68 28.5C68 22.1487 64.9797 17 61.254 17C58.6951 17 56.4691 19.4286 55.3256 23.0075ZM30.6984 28.5C30.6984 26.5991 30.9849 24.806 31.4921 23.2264C30.3046 19.528 27.9071 17 25.1429 17C21.198 17 18 22.1487 18 28.5C18 34.8513 21.198 40 25.1429 40C27.9071 40 30.3046 37.472 31.4921 33.7736C30.9849 32.194 30.6984 30.4009 30.6984 28.5Z" fill="black"/>
<path d="M31.2857 28.5C31.2857 26.6979 31.0139 25.0082 30.5399 23.5321L32.4442 22.9206C32.9846 24.6038 33.2857 26.5004 33.2857 28.5H31.2857ZM30.5399 33.4679C31.0139 31.9918 31.2857 30.3021 31.2857 28.5H33.2857C33.2857 30.4996 32.9846 32.3962 32.4442 34.0794L30.5399 33.4679ZM37.8413 41C34.4139 41 31.7736 37.9215 30.5399 34.0794L32.4442 33.4679C33.5855 37.0224 35.7402 39 37.8413 39V41ZM45.0928 34.2319C43.8415 37.998 41.2245 41 37.8413 41V39C39.915 39 42.0403 37.0759 43.1948 33.6013L45.0928 34.2319ZM44.3968 28.5C44.3968 30.3685 44.655 32.1168 45.1028 33.6333L43.1847 34.1998C42.6792 32.4882 42.3968 30.5483 42.3968 28.5H44.3968ZM45.1028 23.3667C44.655 24.8832 44.3968 26.6315 44.3968 28.5H42.3968C42.3968 26.4517 42.6792 24.5118 43.1847 22.8002L45.1028 23.3667ZM37.8413 16C41.2245 16 43.8415 19.002 45.0928 22.7681L43.1948 23.3987C42.0403 19.9241 39.915 18 37.8413 18V16ZM30.5399 22.9206C31.7736 19.0785 34.4139 16 37.8413 16V18C35.7402 18 33.5855 19.9776 32.4442 23.5321L30.5399 22.9206ZM49.746 16C51.3112 16 52.6872 16.793 53.7751 17.9887C54.8606 19.182 55.7148 20.8289 56.2833 22.7195L54.368 23.2954C53.8604 21.6072 53.1288 20.2504 52.2957 19.3346C51.4649 18.4214 50.5891 18 49.746 18V16ZM43.1847 22.8002C43.7494 20.8884 44.6043 19.222 45.6939 18.0142C46.7855 16.8042 48.1696 16 49.746 16V18C48.8971 18 48.0148 18.4273 47.1789 19.3539C46.341 20.2828 45.6075 21.658 45.1028 23.3667L43.1847 22.8002ZM43.9841 28.5C43.9841 26.6432 43.6956 24.906 43.1948 23.3987L45.0928 22.7681C45.6645 24.489 45.9841 26.44 45.9841 28.5H43.9841ZM43.1948 33.6013C43.6956 32.094 43.9841 30.3568 43.9841 28.5H45.9841C45.9841 30.56 45.6645 32.511 45.0928 34.2319L43.1948 33.6013ZM49.746 41C48.1696 41 46.7855 40.1958 45.6939 38.9858C44.6043 37.778 43.7494 36.1116 43.1847 34.1998L45.1028 33.6333C45.6075 35.342 46.341 36.7172 47.1789 37.6461C48.0148 38.5727 48.8971 39 49.746 39V41ZM56.2833 34.2805C55.7148 36.1711 54.8606 37.818 53.7751 39.0113C52.6872 40.207 51.3112 41 49.746 41V39C50.5891 39 51.4649 38.5786 52.2957 37.6654C53.1288 36.7496 53.8604 35.3928 54.368 33.7046L56.2833 34.2805ZM55.5079 28.5C55.5079 30.3921 55.79 32.1602 56.2782 33.6882L54.3731 34.2969C53.8184 32.5607 53.5079 30.5864 53.5079 28.5H55.5079ZM56.2782 23.3118C55.79 24.8398 55.5079 26.6079 55.5079 28.5H53.5079C53.5079 26.4136 53.8184 24.4393 54.3731 22.7031L56.2782 23.3118ZM56.2833 22.7195C56.8039 24.4508 57.0952 26.4196 57.0952 28.5H55.0952C55.0952 26.602 54.8289 24.8282 54.368 23.2954L56.2833 22.7195ZM57.0952 28.5C57.0952 30.5804 56.8039 32.5492 56.2833 34.2805L54.368 33.7046C54.8289 32.1718 55.0952 30.398 55.0952 28.5H57.0952ZM56.2782 33.6882C57.3851 37.1528 59.3789 39 61.254 39V41C58.0114 41 55.553 37.9899 54.3731 34.2969L56.2782 33.6882ZM61.254 39C62.6163 39 64.0318 38.0518 65.1616 36.1257C66.2776 34.2233 67 31.5295 67 28.5H69C69 31.8218 68.2123 34.878 66.8867 37.1377C65.5749 39.3739 63.6173 41 61.254 41V39ZM67 28.5C67 25.4705 66.2776 22.7767 65.1616 20.8743C64.0318 18.9482 62.6163 18 61.254 18V16C63.6173 16 65.5749 17.6261 66.8867 19.8623C68.2123 22.122 69 25.1782 69 28.5H67ZM61.254 18C59.3789 18 57.3851 19.8472 56.2782 23.3118L54.3731 22.7031C55.553 19.0101 58.0114 16 61.254 16V18ZM32.4442 23.5321C31.9702 25.0082 31.6984 26.6979 31.6984 28.5H29.6984C29.6984 26.5004 29.9995 24.6038 30.5399 22.9206L32.4442 23.5321ZM25.1429 16C28.5702 16 31.2105 19.0785 32.4442 22.9206L30.5399 23.5321C29.3986 19.9776 27.244 18 25.1429 18V16ZM17 28.5C17 25.1681 17.8368 22.104 19.2426 19.8406C20.6391 17.5922 22.6982 16 25.1429 16V18C23.6427 18 22.1303 18.9821 20.9416 20.8959C19.7621 22.7948 19 25.4807 19 28.5H17ZM25.1429 41C22.6982 41 20.6391 39.4078 19.2426 37.1594C17.8368 34.896 17 31.8319 17 28.5H19C19 31.5193 19.7621 34.2052 20.9416 36.1041C22.1303 38.0179 23.6427 39 25.1429 39V41ZM32.4442 34.0794C31.2105 37.9215 28.5702 41 25.1429 41V39C27.244 39 29.3986 37.0224 30.5399 33.4679L32.4442 34.0794ZM31.6984 28.5C31.6984 30.3021 31.9702 31.9918 32.4442 33.4679L30.5399 34.0794C29.9995 32.3962 29.6984 30.4996 29.6984 28.5H31.6984Z" fill="white" mask="url(#path-4-inside-1_31_260)"/>
<ellipse rx="1.5" ry="5.52" transform="matrix(1 0 0 -1 19.5 28.5)" fill="white"/>
<ellipse rx="1.5" ry="5.52" transform="matrix(1 0 0 -1 55.5 28.5)" fill="white"/>
<ellipse rx="1.5" ry="5.52" transform="matrix(1 0 0 -1 66.5 28.5)" fill="white"/>
<ellipse rx="1.5" ry="5.52" transform="matrix(1 0 0 -1 44.5 48.5)" fill="white"/>
<ellipse rx="1.5" ry="5.52" transform="matrix(1 0 0 -1 31.5 48.5)" fill="white"/>
<mask id="path-11-inside-2_31_260" fill="white">
<path fill-rule="evenodd" clip-rule="evenodd" d="M31.4921 43.2264C31.9993 44.806 32.2857 46.5991 32.2857 48.5C32.2857 50.4009 31.9993 52.194 31.4921 53.7736C32.6795 57.472 35.077 60 37.8413 60C40.5697 60 42.9409 57.537 44.1438 53.9166C43.6671 52.3025 43.3968 50.4584 43.3968 48.5C43.3968 46.5416 43.6671 44.6975 44.1438 43.0834C42.9409 39.463 40.5697 37 37.8413 37C35.077 37 32.6795 39.528 31.4921 43.2264ZM55.3256 43.0075C54.2495 39.4286 52.1543 37 49.746 37C47.3207 37 45.213 39.463 44.1438 43.0834C44.6801 44.6975 44.9841 46.5416 44.9841 48.5C44.9841 50.4584 44.6801 52.3025 44.1438 53.9166C45.213 57.537 47.3207 60 49.746 60C52.1543 60 54.2495 57.5714 55.3256 53.9925C54.8042 52.3605 54.5079 50.4892 54.5079 48.5C54.5079 46.5108 54.8042 44.6395 55.3256 43.0075ZM55.3256 43.0075C55.8164 44.6395 56.0952 46.5108 56.0952 48.5C56.0952 50.4892 55.8164 52.3605 55.3256 53.9925C56.4691 57.5714 58.6951 60 61.254 60C64.9797 60 68 54.8513 68 48.5C68 42.1487 64.9797 37 61.254 37C58.6951 37 56.4691 39.4286 55.3256 43.0075ZM30.6984 48.5C30.6984 46.5991 30.9849 44.806 31.4921 43.2264C30.3046 39.528 27.9071 37 25.1429 37C21.198 37 18 42.1487 18 48.5C18 54.8513 21.198 60 25.1429 60C27.9071 60 30.3046 57.472 31.4921 53.7736C30.9849 52.194 30.6984 50.4009 30.6984 48.5Z"/>
</mask>
<path fill-rule="evenodd" clip-rule="evenodd" d="M31.4921 43.2264C31.9993 44.806 32.2857 46.5991 32.2857 48.5C32.2857 50.4009 31.9993 52.194 31.4921 53.7736C32.6795 57.472 35.077 60 37.8413 60C40.5697 60 42.9409 57.537 44.1438 53.9166C43.6671 52.3025 43.3968 50.4584 43.3968 48.5C43.3968 46.5416 43.6671 44.6975 44.1438 43.0834C42.9409 39.463 40.5697 37 37.8413 37C35.077 37 32.6795 39.528 31.4921 43.2264ZM55.3256 43.0075C54.2495 39.4286 52.1543 37 49.746 37C47.3207 37 45.213 39.463 44.1438 43.0834C44.6801 44.6975 44.9841 46.5416 44.9841 48.5C44.9841 50.4584 44.6801 52.3025 44.1438 53.9166C45.213 57.537 47.3207 60 49.746 60C52.1543 60 54.2495 57.5714 55.3256 53.9925C54.8042 52.3605 54.5079 50.4892 54.5079 48.5C54.5079 46.5108 54.8042 44.6395 55.3256 43.0075ZM55.3256 43.0075C55.8164 44.6395 56.0952 46.5108 56.0952 48.5C56.0952 50.4892 55.8164 52.3605 55.3256 53.9925C56.4691 57.5714 58.6951 60 61.254 60C64.9797 60 68 54.8513 68 48.5C68 42.1487 64.9797 37 61.254 37C58.6951 37 56.4691 39.4286 55.3256 43.0075ZM30.6984 48.5C30.6984 46.5991 30.9849 44.806 31.4921 43.2264C30.3046 39.528 27.9071 37 25.1429 37C21.198 37 18 42.1487 18 48.5C18 54.8513 21.198 60 25.1429 60C27.9071 60 30.3046 57.472 31.4921 53.7736C30.9849 52.194 30.6984 50.4009 30.6984 48.5Z" fill="black"/>
<path d="M31.2857 48.5C31.2857 46.6979 31.0139 45.0082 30.5399 43.5321L32.4442 42.9206C32.9846 44.6038 33.2857 46.5004 33.2857 48.5H31.2857ZM30.5399 53.4679C31.0139 51.9918 31.2857 50.3021 31.2857 48.5H33.2857C33.2857 50.4996 32.9846 52.3962 32.4442 54.0794L30.5399 53.4679ZM37.8413 61C34.4139 61 31.7736 57.9215 30.5399 54.0794L32.4442 53.4679C33.5855 57.0224 35.7402 59 37.8413 59V61ZM45.0928 54.2319C43.8415 57.998 41.2245 61 37.8413 61V59C39.915 59 42.0403 57.0759 43.1948 53.6013L45.0928 54.2319ZM44.3968 48.5C44.3968 50.3685 44.655 52.1168 45.1028 53.6333L43.1847 54.1998C42.6792 52.4882 42.3968 50.5483 42.3968 48.5H44.3968ZM45.1028 43.3667C44.655 44.8832 44.3968 46.6315 44.3968 48.5H42.3968C42.3968 46.4517 42.6792 44.5118 43.1847 42.8002L45.1028 43.3667ZM37.8413 36C41.2245 36 43.8415 39.002 45.0928 42.7681L43.1948 43.3987C42.0403 39.9241 39.915 38 37.8413 38V36ZM30.5399 42.9206C31.7736 39.0785 34.4139 36 37.8413 36V38C35.7402 38 33.5855 39.9776 32.4442 43.5321L30.5399 42.9206ZM49.746 36C51.3112 36 52.6872 36.793 53.7751 37.9887C54.8606 39.182 55.7148 40.8289 56.2833 42.7195L54.368 43.2954C53.8604 41.6072 53.1288 40.2504 52.2957 39.3346C51.4649 38.4214 50.5891 38 49.746 38V36ZM43.1847 42.8002C43.7494 40.8884 44.6043 39.222 45.6939 38.0142C46.7855 36.8042 48.1696 36 49.746 36V38C48.8971 38 48.0148 38.4273 47.1789 39.3539C46.341 40.2828 45.6075 41.658 45.1028 43.3667L43.1847 42.8002ZM43.9841 48.5C43.9841 46.6432 43.6956 44.906 43.1948 43.3987L45.0928 42.7681C45.6645 44.489 45.9841 46.44 45.9841 48.5H43.9841ZM43.1948 53.6013C43.6956 52.094 43.9841 50.3568 43.9841 48.5H45.9841C45.9841 50.56 45.6645 52.511 45.0928 54.2319L43.1948 53.6013ZM49.746 61C48.1696 61 46.7855 60.1958 45.6939 58.9858C44.6043 57.778 43.7494 56.1116 43.1847 54.1998L45.1028 53.6333C45.6075 55.342 46.341 56.7172 47.1789 57.6461C48.0148 58.5727 48.8971 59 49.746 59V61ZM56.2833 54.2805C55.7148 56.1711 54.8606 57.818 53.7751 59.0113C52.6872 60.207 51.3112 61 49.746 61V59C50.5891 59 51.4649 58.5786 52.2957 57.6654C53.1288 56.7496 53.8604 55.3928 54.368 53.7046L56.2833 54.2805ZM55.5079 48.5C55.5079 50.3921 55.79 52.1602 56.2782 53.6882L54.3731 54.2969C53.8184 52.5607 53.5079 50.5864 53.5079 48.5H55.5079ZM56.2782 43.3118C55.79 44.8398 55.5079 46.6079 55.5079 48.5H53.5079C53.5079 46.4136 53.8184 44.4393 54.3731 42.7031L56.2782 43.3118ZM56.2833 42.7195C56.8039 44.4508 57.0952 46.4196 57.0952 48.5H55.0952C55.0952 46.602 54.8289 44.8282 54.368 43.2954L56.2833 42.7195ZM57.0952 48.5C57.0952 50.5804 56.8039 52.5492 56.2833 54.2805L54.368 53.7046C54.8289 52.1718 55.0952 50.398 55.0952 48.5H57.0952ZM56.2782 53.6882C57.3851 57.1528 59.3789 59 61.254 59V61C58.0114 61 55.553 57.9899 54.3731 54.2969L56.2782 53.6882ZM61.254 59C62.6163 59 64.0318 58.0518 65.1616 56.1257C66.2776 54.2233 67 51.5295 67 48.5H69C69 51.8218 68.2123 54.878 66.8867 57.1377C65.5749 59.3739 63.6173 61 61.254 61V59ZM67 48.5C67 45.4705 66.2776 42.7767 65.1616 40.8743C64.0318 38.9482 62.6163 38 61.254 38V36C63.6173 36 65.5749 37.6261 66.8867 39.8623C68.2123 42.122 69 45.1782 69 48.5H67ZM61.254 38C59.3789 38 57.3851 39.8472 56.2782 43.3118L54.3731 42.7031C55.553 39.0101 58.0114 36 61.254 36V38ZM32.4442 43.5321C31.9702 45.0082 31.6984 46.6979 31.6984 48.5H29.6984C29.6984 46.5004 29.9995 44.6038 30.5399 42.9206L32.4442 43.5321ZM25.1429 36C28.5702 36 31.2105 39.0785 32.4442 42.9206L30.5399 43.5321C29.3986 39.9776 27.244 38 25.1429 38V36ZM17 48.5C17 45.1681 17.8368 42.104 19.2426 39.8406C20.6391 37.5922 22.6982 36 25.1429 36V38C23.6427 38 22.1303 38.9821 20.9416 40.8959C19.7621 42.7948 19 45.4807 19 48.5H17ZM25.1429 61C22.6982 61 20.6391 59.4078 19.2426 57.1594C17.8368 54.896 17 51.8319 17 48.5H19C19 51.5193 19.7621 54.2052 20.9416 56.1041C22.1303 58.0179 23.6427 59 25.1429 59V61ZM32.4442 54.0794C31.2105 57.9215 28.5702 61 25.1429 61V59C27.244 59 29.3986 57.0224 30.5399 53.4679L32.4442 54.0794ZM31.6984 48.5C31.6984 50.3021 31.9702 51.9918 32.4442 53.4679L30.5399 54.0794C29.9995 52.3962 29.6984 50.4996 29.6984 48.5H31.6984Z" fill="white" mask="url(#path-11-inside-2_31_260)"/>
<ellipse rx="1.5" ry="5.52" transform="matrix(1 0 0 -1 19.5 48.5)" fill="white"/>
<ellipse rx="1.5" ry="5.52" transform="matrix(1 0 0 -1 55.5 48.5)" fill="white"/>
<ellipse rx="1.5" ry="5.52" transform="matrix(1 0 0 -1 66.5 48.5)" fill="white"/>
<ellipse rx="1.5" ry="3.36" transform="matrix(1 0 0 -1 44.5 62.0001)" fill="white"/>
<ellipse rx="1.5" ry="3.36" transform="matrix(1 0 0 -1 31.5 62.0001)" fill="white"/>
<mask id="path-18-inside-3_31_260" fill="white">
<path fill-rule="evenodd" clip-rule="evenodd" d="M31.4921 58.79C31.9993 59.7515 32.2857 60.843 32.2857 62C32.2857 63.157 31.9993 64.2485 31.4921 65.21C32.6795 67.4612 35.077 69 37.8413 69C40.5697 69 42.9409 67.5008 44.1438 65.297C43.6671 64.3146 43.3968 63.1921 43.3968 62C43.3968 60.8079 43.6671 59.6854 44.1438 58.703C42.9409 56.4992 40.5697 55 37.8413 55C35.077 55 32.6795 56.5388 31.4921 58.79ZM55.3256 58.6567C54.2495 56.4783 52.1543 55 49.746 55C47.3207 55 45.213 56.4992 44.1438 58.703C44.6801 59.6854 44.9841 60.8079 44.9841 62C44.9841 63.1921 44.6801 64.3146 44.1438 65.297C45.213 67.5008 47.3207 69 49.746 69C52.1543 69 54.2495 67.5217 55.3256 65.3433C54.8042 64.3498 54.5079 63.2108 54.5079 62C54.5079 60.7892 54.8042 59.6502 55.3256 58.6567ZM55.3256 58.6567C55.8164 59.6502 56.0952 60.7892 56.0952 62C56.0952 63.2108 55.8164 64.3498 55.3256 65.3433C56.4691 67.5217 58.6951 69 61.254 69C64.9797 69 68 65.866 68 62C68 58.134 64.9797 55 61.254 55C58.6951 55 56.4691 56.4783 55.3256 58.6567ZM30.6984 62C30.6984 60.843 30.9849 59.7515 31.4921 58.79C30.3046 56.5388 27.9071 55 25.1429 55C21.198 55 18 58.134 18 62C18 65.866 21.198 69 25.1429 69C27.9071 69 30.3046 67.4612 31.4921 65.21C30.9849 64.2485 30.6984 63.157 30.6984 62Z"/>
</mask>
<path fill-rule="evenodd" clip-rule="evenodd" d="M31.4921 58.79C31.9993 59.7515 32.2857 60.843 32.2857 62C32.2857 63.157 31.9993 64.2485 31.4921 65.21C32.6795 67.4612 35.077 69 37.8413 69C40.5697 69 42.9409 67.5008 44.1438 65.297C43.6671 64.3146 43.3968 63.1921 43.3968 62C43.3968 60.8079 43.6671 59.6854 44.1438 58.703C42.9409 56.4992 40.5697 55 37.8413 55C35.077 55 32.6795 56.5388 31.4921 58.79ZM55.3256 58.6567C54.2495 56.4783 52.1543 55 49.746 55C47.3207 55 45.213 56.4992 44.1438 58.703C44.6801 59.6854 44.9841 60.8079 44.9841 62C44.9841 63.1921 44.6801 64.3146 44.1438 65.297C45.213 67.5008 47.3207 69 49.746 69C52.1543 69 54.2495 67.5217 55.3256 65.3433C54.8042 64.3498 54.5079 63.2108 54.5079 62C54.5079 60.7892 54.8042 59.6502 55.3256 58.6567ZM55.3256 58.6567C55.8164 59.6502 56.0952 60.7892 56.0952 62C56.0952 63.2108 55.8164 64.3498 55.3256 65.3433C56.4691 67.5217 58.6951 69 61.254 69C64.9797 69 68 65.866 68 62C68 58.134 64.9797 55 61.254 55C58.6951 55 56.4691 56.4783 55.3256 58.6567ZM30.6984 62C30.6984 60.843 30.9849 59.7515 31.4921 58.79C30.3046 56.5388 27.9071 55 25.1429 55C21.198 55 18 58.134 18 62C18 65.866 21.198 69 25.1429 69C27.9071 69 30.3046 67.4612 31.4921 65.21C30.9849 64.2485 30.6984 63.157 30.6984 62Z" fill="black"/>
<path d="M31.2857 62C31.2857 61.0101 31.041 60.0783 30.6076 59.2565L32.3766 58.3234C32.9575 59.4247 33.2857 60.6758 33.2857 62H31.2857ZM30.6076 64.7435C31.041 63.9217 31.2857 62.9899 31.2857 62H33.2857C33.2857 63.3242 32.9575 64.5753 32.3766 65.6766L30.6076 64.7435ZM37.8413 70C34.6991 70 31.9649 68.2497 30.6076 65.6766L32.3766 64.7435C33.3942 66.6727 35.4549 68 37.8413 68V70ZM45.0215 65.7762C43.6469 68.2946 40.9428 70 37.8413 70V68C40.1967 68 42.235 66.7069 43.266 64.8179L45.0215 65.7762ZM44.3968 62C44.3968 63.0404 44.6326 64.0137 45.0435 64.8605L43.2441 65.7336C42.7016 64.6155 42.3968 63.3438 42.3968 62H44.3968ZM45.0435 59.1395C44.6326 59.9863 44.3968 60.9596 44.3968 62H42.3968C42.3968 60.6562 42.7016 59.3845 43.2441 58.2664L45.0435 59.1395ZM37.8413 54C40.9428 54 43.6469 55.7054 45.0215 58.2238L43.266 59.1821C42.235 57.2931 40.1967 56 37.8413 56V54ZM30.6076 58.3234C31.9649 55.7503 34.6991 54 37.8413 54V56C35.4549 56 33.3942 57.3273 32.3766 59.2565L30.6076 58.3234ZM49.746 54C52.5863 54 55.0016 55.7429 56.2222 58.2138L54.4291 59.0996C53.4974 57.2137 51.7224 56 49.746 56V54ZM43.2441 58.2664C44.4565 55.7675 46.8856 54 49.746 54V56C47.7559 56 45.9695 57.2309 45.0435 59.1395L43.2441 58.2664ZM43.9841 62C43.9841 60.9802 43.7245 60.0219 43.266 59.1821L45.0215 58.2238C45.6357 59.3489 45.9841 60.6356 45.9841 62H43.9841ZM43.266 64.8179C43.7245 63.9781 43.9841 63.0198 43.9841 62H45.9841C45.9841 63.3644 45.6357 64.6511 45.0215 65.7762L43.266 64.8179ZM49.746 70C46.8856 70 44.4565 68.2325 43.2441 65.7336L45.0435 64.8605C45.9695 66.7691 47.7559 68 49.746 68V70ZM56.2222 65.7862C55.0016 68.2571 52.5863 70 49.746 70V68C51.7224 68 53.4974 66.7863 54.4291 64.9004L56.2222 65.7862ZM55.5079 62C55.5079 63.0463 55.7637 64.0261 56.2111 64.8785L54.4402 65.808C53.8448 64.6736 53.5079 63.3754 53.5079 62H55.5079ZM56.2111 59.1215C55.7637 59.9739 55.5079 60.9537 55.5079 62H53.5079C53.5079 60.6246 53.8448 59.3264 54.4402 58.192L56.2111 59.1215ZM56.2222 58.2138C56.7808 59.3445 57.0952 60.6351 57.0952 62H55.0952C55.0952 60.9433 54.852 59.9558 54.4291 59.0996L56.2222 58.2138ZM57.0952 62C57.0952 63.3649 56.7808 64.6555 56.2222 65.7862L54.4291 64.9004C54.852 64.0442 55.0952 63.0567 55.0952 62H57.0952ZM56.2111 64.8785C57.1952 66.7534 59.0948 68 61.254 68V70C58.2954 70 55.7429 68.29 54.4402 65.808L56.2111 64.8785ZM61.254 68C64.3929 68 67 65.3489 67 62H69C69 66.3831 65.5665 70 61.254 70V68ZM67 62C67 58.6511 64.3929 56 61.254 56V54C65.5665 54 69 57.6169 69 62H67ZM61.254 56C59.0948 56 57.1952 57.2466 56.2111 59.1215L54.4402 58.192C55.7429 55.71 58.2954 54 61.254 54V56ZM32.3766 59.2565C31.9431 60.0783 31.6984 61.0101 31.6984 62H29.6984C29.6984 60.6758 30.0267 59.4247 30.6076 58.3234L32.3766 59.2565ZM25.1429 54C28.285 54 31.0193 55.7503 32.3766 58.3234L30.6076 59.2565C29.5899 57.3273 27.5292 56 25.1429 56V54ZM17 62C17 57.5628 20.6648 54 25.1429 54V56C21.7311 56 19 58.7052 19 62H17ZM25.1429 70C20.6648 70 17 66.4372 17 62H19C19 65.2948 21.7311 68 25.1429 68V70ZM32.3766 65.6766C31.0193 68.2497 28.285 70 25.1429 70V68C27.5292 68 29.5899 66.6727 30.6076 64.7435L32.3766 65.6766ZM31.6984 62C31.6984 62.9899 31.9431 63.9217 32.3766 64.7435L30.6076 65.6766C30.0267 64.5753 29.6984 63.3242 29.6984 62H31.6984Z" fill="white" mask="url(#path-18-inside-3_31_260)"/>
<ellipse rx="1.5" ry="3.36" transform="matrix(1 0 0 -1 19.5 62.0001)" fill="white"/>
<ellipse rx="1.5" ry="3.36" transform="matrix(1 0 0 -1 55.5 62.0001)" fill="white"/>
<ellipse rx="1.5" ry="3.36" transform="matrix(1 0 0 -1 66.5 62.0001)" fill="white"/>
<ellipse rx="1.5" ry="1.2" transform="matrix(1 0 0 -1 44.5 61.5001)" fill="white"/>
<ellipse rx="1.5" ry="1.2" transform="matrix(1 0 0 -1 31.5 61.5001)" fill="white"/>
<mask id="path-25-inside-4_31_260" fill="white">
<path fill-rule="evenodd" clip-rule="evenodd" d="M31.4921 60.3536C31.9993 60.697 32.2857 61.0868 32.2857 61.5C32.2857 61.9132 31.9993 62.303 31.4921 62.6464C32.6795 63.4504 35.077 64 37.8413 64C40.5697 64 42.9409 63.4646 44.1438 62.6775C43.6671 62.3266 43.3968 61.9257 43.3968 61.5C43.3968 61.0743 43.6671 60.6734 44.1438 60.3225C42.9409 59.5354 40.5697 59 37.8413 59C35.077 59 32.6795 59.5496 31.4921 60.3536ZM55.3256 60.306C54.2495 59.528 52.1544 59 49.746 59C47.3207 59 45.213 59.5354 44.1438 60.3225C44.6801 60.6734 44.9841 61.0743 44.9841 61.5C44.9841 61.9257 44.6801 62.3266 44.1438 62.6775C45.213 63.4646 47.3207 64 49.746 64C52.1544 64 54.2495 63.472 55.3256 62.694C54.8042 62.3392 54.5079 61.9324 54.5079 61.5C54.5079 61.0676 54.8042 60.6608 55.3256 60.306ZM55.3256 60.306C55.8164 60.6608 56.0952 61.0676 56.0952 61.5C56.0952 61.9324 55.8164 62.3392 55.3256 62.694C56.4691 63.472 58.6951 64 61.254 64C64.9797 64 68 62.8807 68 61.5C68 60.1193 64.9797 59 61.254 59C58.6951 59 56.4691 59.528 55.3256 60.306ZM30.6984 61.5C30.6984 61.0868 30.9849 60.697 31.4921 60.3536C30.3046 59.5496 27.9071 59 25.1429 59C21.198 59 18 60.1193 18 61.5C18 62.8807 21.198 64 25.1429 64C27.9071 64 30.3046 63.4504 31.4921 62.6464C30.9849 62.303 30.6984 61.9132 30.6984 61.5Z"/>
</mask>
<path fill-rule="evenodd" clip-rule="evenodd" d="M31.4921 60.3536C31.9993 60.697 32.2857 61.0868 32.2857 61.5C32.2857 61.9132 31.9993 62.303 31.4921 62.6464C32.6795 63.4504 35.077 64 37.8413 64C40.5697 64 42.9409 63.4646 44.1438 62.6775C43.6671 62.3266 43.3968 61.9257 43.3968 61.5C43.3968 61.0743 43.6671 60.6734 44.1438 60.3225C42.9409 59.5354 40.5697 59 37.8413 59C35.077 59 32.6795 59.5496 31.4921 60.3536ZM55.3256 60.306C54.2495 59.528 52.1544 59 49.746 59C47.3207 59 45.213 59.5354 44.1438 60.3225C44.6801 60.6734 44.9841 61.0743 44.9841 61.5C44.9841 61.9257 44.6801 62.3266 44.1438 62.6775C45.213 63.4646 47.3207 64 49.746 64C52.1544 64 54.2495 63.472 55.3256 62.694C54.8042 62.3392 54.5079 61.9324 54.5079 61.5C54.5079 61.0676 54.8042 60.6608 55.3256 60.306ZM55.3256 60.306C55.8164 60.6608 56.0952 61.0676 56.0952 61.5C56.0952 61.9324 55.8164 62.3392 55.3256 62.694C56.4691 63.472 58.6951 64 61.254 64C64.9797 64 68 62.8807 68 61.5C68 60.1193 64.9797 59 61.254 59C58.6951 59 56.4691 59.528 55.3256 60.306ZM30.6984 61.5C30.6984 61.0868 30.9849 60.697 31.4921 60.3536C30.3046 59.5496 27.9071 59 25.1429 59C21.198 59 18 60.1193 18 61.5C18 62.8807 21.198 64 25.1429 64C27.9071 64 30.3046 63.4504 31.4921 62.6464C30.9849 62.303 30.6984 61.9132 30.6984 61.5Z" fill="black"/>
<path d="M31.2857 61.5C31.2857 61.537 31.3014 61.5331 31.261 61.4757C31.2156 61.4111 31.1178 61.3078 30.9314 61.1816L32.0527 59.5255C32.6605 59.937 33.2857 60.589 33.2857 61.5H31.2857ZM30.9314 61.8184C31.1178 61.6922 31.2156 61.5889 31.261 61.5243C31.3014 61.4669 31.2857 61.463 31.2857 61.5H33.2857C33.2857 62.411 32.6605 63.063 32.0527 63.4745L30.9314 61.8184ZM37.8413 65C36.396 65 35.0337 64.8566 33.8628 64.6019C32.7083 64.3507 31.6735 63.9769 30.9314 63.4745L32.0527 61.8184C32.4981 62.1199 33.2558 62.423 34.288 62.6476C35.3037 62.8686 36.5223 63 37.8413 63V65ZM44.6913 63.5143C43.2463 64.4598 40.6404 65 37.8413 65V63C40.4991 63 42.6356 62.4693 43.5963 61.8407L44.6913 63.5143ZM44.3968 61.5C44.3968 61.5001 44.3968 61.5005 44.397 61.5016C44.3972 61.5027 44.3977 61.5057 44.3993 61.5108C44.4025 61.5208 44.411 61.5423 44.4321 61.5751C44.4766 61.6441 44.5676 61.7478 44.7366 61.8722L43.551 63.4829C42.9566 63.0453 42.3968 62.3832 42.3968 61.5H44.3968ZM44.7366 61.1278C44.5676 61.2522 44.4766 61.3559 44.4321 61.4249C44.411 61.4577 44.4025 61.4792 44.3993 61.4892C44.3977 61.4943 44.3972 61.4973 44.397 61.4984C44.3968 61.4995 44.3968 61.4999 44.3968 61.5H42.3968C42.3968 60.6168 42.9566 59.9547 43.551 59.5171L44.7366 61.1278ZM37.8413 58C40.6404 58 43.2463 58.5402 44.6913 59.4857L43.5963 61.1593C42.6356 60.5307 40.4991 60 37.8413 60V58ZM30.9314 59.5255C31.6735 59.0231 32.7083 58.6493 33.8628 58.3981C35.0337 58.1434 36.396 58 37.8413 58V60C36.5223 60 35.3037 60.1314 34.288 60.3524C33.2558 60.577 32.4981 60.8801 32.0527 61.1816L30.9314 59.5255ZM49.746 58C52.2416 58 54.5867 58.5378 55.9115 59.4956L54.7398 61.1164C53.9123 60.5181 52.0671 60 49.746 60V58ZM43.551 59.5171C44.872 58.5448 47.2346 58 49.746 58V60C47.4068 60 45.5541 60.5261 44.7366 61.1278L43.551 59.5171ZM43.9841 61.5C43.9841 61.5386 44.0009 61.5329 43.9555 61.4702C43.9047 61.4001 43.7972 61.2907 43.5963 61.1593L44.6913 59.4857C45.3231 59.8991 45.9841 60.5622 45.9841 61.5H43.9841ZM43.5963 61.8407C43.7972 61.7093 43.9047 61.5999 43.9555 61.5298C44.0009 61.4671 43.9841 61.4614 43.9841 61.5H45.9841C45.9841 62.4378 45.3231 63.1009 44.6913 63.5143L43.5963 61.8407ZM49.746 65C47.2346 65 44.872 64.4552 43.551 63.4829L44.7366 61.8722C45.5541 62.4739 47.4068 63 49.746 63V65ZM55.9115 63.5044C54.5867 64.4622 52.2416 65 49.746 65V63C52.0671 63 53.9123 62.4819 54.7398 61.8836L55.9115 63.5044ZM55.5079 61.5C55.5079 61.4757 55.4969 61.49 55.5421 61.5549C55.5922 61.627 55.696 61.7365 55.8882 61.8673L54.7631 63.5208C54.1362 63.0942 53.5079 62.425 53.5079 61.5H55.5079ZM55.8882 61.1327C55.696 61.2635 55.5922 61.373 55.5421 61.4451C55.4969 61.51 55.5079 61.5243 55.5079 61.5H53.5079C53.5079 60.575 54.1362 59.9058 54.7631 59.4792L55.8882 61.1327ZM55.9115 59.4956C56.5186 59.9344 57.0952 60.603 57.0952 61.5H55.0952C55.0952 61.4999 55.0952 61.4995 55.0951 61.4984C55.0949 61.4972 55.0943 61.4941 55.0926 61.4887C55.0892 61.4782 55.0802 61.4558 55.0579 61.4218C55.011 61.3502 54.9156 61.2435 54.7398 61.1164L55.9115 59.4956ZM57.0952 61.5C57.0952 62.397 56.5186 63.0656 55.9115 63.5044L54.7398 61.8836C54.9156 61.7565 55.011 61.6499 55.0579 61.5782C55.0802 61.5442 55.0892 61.5218 55.0926 61.5113C55.0943 61.5059 55.0949 61.5028 55.0951 61.5016C55.0952 61.5005 55.0952 61.5001 55.0952 61.5H57.0952ZM55.8882 61.8673C56.7876 62.4793 58.7741 63 61.254 63V65C58.6161 65 56.1505 64.4648 54.7631 63.5208L55.8882 61.8673ZM61.254 63C63.0298 63 64.5933 62.7316 65.6766 62.3301C66.2222 62.1279 66.5938 61.9111 66.8109 61.721C67.0298 61.5291 67 61.4518 67 61.5H69C69 62.2386 68.5927 62.8189 68.1289 63.2253C67.6632 63.6333 67.0469 63.9552 66.3716 64.2054C65.0134 64.7088 63.2039 65 61.254 65V63ZM67 61.5C67 61.5482 67.0298 61.4709 66.8109 61.279C66.5938 61.0889 66.2222 60.8721 65.6766 60.6699C64.5933 60.2684 63.0298 60 61.254 60V58C63.2039 58 65.0134 58.2912 66.3716 58.7946C67.0469 59.0448 67.6632 59.3667 68.1289 59.7747C68.5927 60.1811 69 60.7614 69 61.5H67ZM61.254 60C58.7741 60 56.7876 60.5207 55.8882 61.1327L54.7631 59.4792C56.1505 58.5352 58.6161 58 61.254 58V60ZM32.0527 61.1816C31.8663 61.3078 31.7685 61.4112 31.7231 61.4757C31.6827 61.5331 31.6984 61.537 31.6984 61.5H29.6984C29.6984 60.589 30.3236 59.937 30.9314 59.5255L32.0527 61.1816ZM25.1429 58C26.5881 58 27.9504 58.1434 29.1214 58.3981C30.2758 58.6493 31.3106 59.0231 32.0527 59.5255L30.9314 61.1816C30.486 60.8801 29.7284 60.577 28.6961 60.3524C27.6804 60.1314 26.4619 60 25.1429 60V58ZM17 61.5C17 60.7379 17.4436 60.1538 17.9238 59.7565C18.4103 59.3539 19.0542 59.036 19.7617 58.7884C21.1861 58.2899 23.0886 58 25.1429 58V60C23.2522 60 21.5833 60.2698 20.4224 60.6761C19.8374 60.8809 19.4352 61.1017 19.1988 61.2973C18.9561 61.4982 19 61.5717 19 61.5H17ZM25.1429 65C23.0886 65 21.1861 64.7101 19.7617 64.2116C19.0542 63.964 18.4103 63.6461 17.9238 63.2435C17.4436 62.8462 17 62.2621 17 61.5H19C19 61.4283 18.9561 61.5018 19.1988 61.7027C19.4352 61.8983 19.8374 62.1191 20.4224 62.3239C21.5833 62.7302 23.2522 63 25.1429 63V65ZM32.0527 63.4745C31.3106 63.9769 30.2758 64.3507 29.1214 64.6019C27.9504 64.8566 26.5881 65 25.1429 65V63C26.4619 63 27.6804 62.8686 28.6961 62.6476C29.7284 62.423 30.486 62.1199 30.9314 61.8184L32.0527 63.4745ZM31.6984 61.5C31.6984 61.463 31.6827 61.4669 31.7231 61.5243C31.7685 61.5888 31.8663 61.6922 32.0527 61.8184L30.9314 63.4745C30.3236 63.063 29.6984 62.411 29.6984 61.5H31.6984Z" fill="white" mask="url(#path-25-inside-4_31_260)"/>
<ellipse rx="1.5" ry="1.2" transform="matrix(1 0 0 -1 19.5 61.5001)" fill="white"/>
<ellipse rx="1.5" ry="1.2" transform="matrix(1 0 0 -1 55.5 61.5001)" fill="white"/>
<ellipse rx="1.5" ry="1.2" transform="matrix(1 0 0 -1 66.5 61.5001)" fill="white"/>
<rect x="0.5" y="-0.5" width="4" height="5" rx="2" transform="matrix(1 0 0 -1 23 40)" fill="black" stroke="white"/>
<rect x="0.5" y="-0.5" width="5" height="7" rx="2.5" transform="matrix(1 0 0 -1 35 41)" fill="black" stroke="white"/>
<rect x="0.5" y="-0.5" width="4" height="7" rx="2" transform="matrix(1 0 0 -1 47 41)" fill="black" stroke="white"/>
<rect x="0.5" y="-0.5" width="4" height="6" rx="2" transform="matrix(1 0 0 -1 59 41)" fill="black" stroke="white"/>
</svg>
