<svg width="86" height="86" viewBox="0 0 86 86" fill="none" xmlns="http://www.w3.org/2000/svg">
<circle cx="43" cy="43" r="43" fill="black"/>
<path d="M41.739 19.7451V23.4663H20.0886V19.7451H41.739Z" fill="white"/>
<path d="M63.2752 19.7451V23.4663H41.6248V19.7451H63.2752Z" fill="white"/>
<path d="M41.4978 31.6528V35.374H19.8474V31.6528H41.4978Z" fill="white"/>
<path d="M63.0339 31.6528V35.374H41.3836V31.6528H63.0339Z" fill="white"/>
<path d="M41.8348 43.1265V46.9058H19.8462V43.1265H41.8348Z" fill="white"/>
<path d="M63.7075 43.1265V46.9058H41.7189V43.1265H63.7075Z" fill="white"/>
<path d="M43.3348 55.2204V53.7204H41.8348H19.8462H18.3462V55.2204V58.9997V60.4997H19.8462H41.8348H43.3348V58.9997V55.2204ZM50.7707 56.3692L50.7707 56.3692L50.7799 56.3636C51.455 55.9519 52.0023 55.3992 52.4033 54.7184C52.8314 54.0117 53.045 53.2293 53.045 52.4031C53.045 51.152 52.5794 50.0449 51.6952 49.1607C50.811 48.2765 49.7039 47.8109 48.4529 47.8109C47.2019 47.8109 46.0948 48.2765 45.2105 49.1607C44.3263 50.0449 43.8607 51.152 43.8607 52.4031C43.8607 53.6541 44.3263 54.7612 45.2105 55.6454C46.0948 56.5296 47.2019 56.9952 48.4529 56.9952C49.2771 56.9952 50.0627 56.794 50.7707 56.3692ZM64.0927 56.3692L64.0928 56.3692L64.1019 56.3636C64.7771 55.9519 65.3244 55.3992 65.7254 54.7184C66.1534 54.0117 66.3671 53.2293 66.3671 52.4031C66.3671 51.152 65.9015 50.0449 65.0173 49.1607C64.133 48.2765 63.0259 47.8109 61.7749 47.8109C60.5239 47.8109 59.4168 48.2765 58.5326 49.1607C57.6484 50.0449 57.1828 51.152 57.1828 52.4031C57.1828 53.6541 57.6484 54.7612 58.5326 55.6454C59.4168 56.5296 60.5239 56.9952 61.7749 56.9952C62.5991 56.9952 63.3847 56.794 64.0927 56.3692ZM77.4148 56.3692L77.4148 56.3692L77.4239 56.3636C78.0991 55.9519 78.6464 55.3992 79.0474 54.7184C79.4755 54.0117 79.6891 53.2293 79.6891 52.4031C79.6891 51.152 79.2235 50.0449 78.3393 49.1607C77.4551 48.2765 76.348 47.8109 75.0969 47.8109C73.8459 47.8109 72.7388 48.2765 71.8546 49.1607C70.9704 50.0449 70.5048 51.152 70.5048 52.4031C70.5048 53.6541 70.9704 54.7612 71.8546 55.6454C72.7388 56.5296 73.8459 56.9952 75.0969 56.9952C75.9211 56.9952 76.7067 56.794 77.4148 56.3692Z" fill="white" stroke="black" stroke-width="3"/>
</svg>
