<svg width="79" height="79" viewBox="0 0 79 79" fill="none" xmlns="http://www.w3.org/2000/svg">
<circle cx="39.5" cy="39.5" r="39.5" fill="black"/>
<circle cx="39.5" cy="26.5" r="18" stroke="white" stroke-width="3"/>
<path d="M44.1846 40.2587C44.5414 41.4817 44.7871 42.7539 44.9097 44.063L43.9141 44.1563C43.9709 44.7627 44 45.3777 44 46C44 46.6223 43.9709 47.2373 43.9141 47.8437L44.9097 47.937C44.7871 49.2461 44.5414 50.5183 44.1846 51.7413L43.2246 51.4613C42.8767 52.6542 42.4176 53.7977 41.8599 54.8793L42.7487 55.3376C42.1521 56.4944 41.4482 57.584 40.6505 58.5923L39.8662 57.9719C39.1018 58.9382 38.247 59.8257 37.3153 60.6208L37.9644 61.3815C36.9816 62.2202 35.917 62.9617 34.7849 63.5916L34.2987 62.7178C33.2336 63.3104 32.1059 63.7986 30.9286 64.1691L31.2288 65.123C30.0111 65.5063 28.7427 65.7706 27.4363 65.9026L27.3357 64.9077C26.7322 64.9687 26.1198 65 25.5 65C24.8802 65 24.2678 64.9687 23.6643 64.9077L23.5637 65.9026C22.2574 65.7706 20.9889 65.5063 19.7712 65.123L20.0714 64.1691C18.8941 63.7986 17.7664 63.3104 16.7013 62.7178L16.2151 63.5916C15.083 62.9617 14.0184 62.2202 13.0356 61.3815L13.6847 60.6208C12.753 59.8257 11.8982 58.9382 11.1338 57.9719L10.3495 58.5923C9.5518 57.584 8.84788 56.4944 8.25134 55.3376L9.14012 54.8793C8.58236 53.7977 8.12333 52.6542 7.77538 51.4613L6.81538 51.7413C6.45864 50.5183 6.21294 49.2461 6.09028 47.937L7.08592 47.8437C7.0291 47.2373 7 46.6223 7 46C7 45.3777 7.0291 44.7627 7.08592 44.1563L6.09028 44.063C6.21294 42.7539 6.45864 41.4817 6.81538 40.2587L7.77538 40.5387C8.12333 39.3458 8.58236 38.2023 9.14012 37.1207L8.25134 36.6624C8.84788 35.5056 9.5518 34.416 10.3495 33.4077L11.1338 34.0281C11.8982 33.0618 12.753 32.1743 13.6847 31.3792L13.0356 30.6185C14.0184 29.7798 15.083 29.0383 16.2151 28.4084L16.7013 29.2822C17.7664 28.6896 18.8941 28.2014 20.0714 27.8309L19.7712 26.877C20.9889 26.4937 22.2573 26.2294 23.5637 26.0974L23.6643 27.0923C24.2678 27.0313 24.8802 27 25.5 27C26.1198 27 26.7322 27.0313 27.3357 27.0923L27.4363 26.0974C28.7426 26.2294 30.0111 26.4937 31.2288 26.877L30.9286 27.8309C32.1059 28.2014 33.2336 28.6896 34.2987 29.2822L34.7849 28.4084C35.917 29.0383 36.9816 29.7798 37.9644 30.6185L37.3153 31.3792C38.247 32.1743 39.1018 33.0618 39.8662 34.0281L40.6505 33.4077C41.4482 34.416 42.1521 35.5056 42.7487 36.6624L41.8599 37.1207C42.4176 38.2023 42.8767 39.3458 43.2246 40.5387L44.1846 40.2587Z" stroke="white" stroke-width="2" stroke-dasharray="4 4"/>
<path d="M72 46C72 56.5174 63.6936 65 53.5 65C43.3064 65 35 56.5174 35 46C35 35.4826 43.3064 27 53.5 27C63.6936 27 72 35.4826 72 46Z" stroke="white" stroke-width="2"/>
</svg>
