<svg width="85" height="85" viewBox="0 0 85 85" fill="none" xmlns="http://www.w3.org/2000/svg">
<circle cx="42.5" cy="42.5" r="42.5" fill="black"/>
<path fill-rule="evenodd" clip-rule="evenodd" d="M66.454 42.2012C65.3213 42.5363 64.1184 42.848 62.8528 43.1337C57.1814 41.9445 50.2889 41.2473 42.8561 41.2473C35.2545 41.2473 28.218 41.9765 22.4748 43.2155C21.0744 42.9077 19.7482 42.5686 18.5065 42.2012C18.5104 42.3626 18.5124 42.5249 18.5124 42.6879C18.5124 43.2096 18.4921 43.7235 18.4529 44.2276C19.7066 43.8611 21.051 43.5227 22.4748 43.2155C28.1502 44.4626 35.0452 45.1936 42.4802 45.1936C50.0764 45.1936 57.1089 44.4306 62.8528 43.1337C64.1304 43.4016 65.346 43.6944 66.4919 44.0099C66.463 43.5758 66.4481 43.1347 66.4481 42.6879C66.4481 42.5249 66.4501 42.3626 66.454 42.2012ZM76.8801 31.887C73.64 26.8171 59.4699 23 42.4802 23C25.4905 23 11.3204 26.8171 8.08032 31.887C5.64254 33.823 3.96045 37.9319 3.96045 42.6879C3.96045 47.6236 5.77204 51.8623 8.35979 53.6988C11.3122 58.6328 25.6338 62.3758 42.8561 62.3758C61.3349 62.3758 76.4741 58.0667 77.8138 52.6009C79.737 50.4443 81 46.809 81 42.6879C81 37.9319 79.3179 33.8229 76.8801 31.887Z" fill="black"/>
<path fill-rule="evenodd" clip-rule="evenodd" d="M66.454 42.2012C65.3213 42.5363 64.1184 42.848 62.8528 43.1337C57.1814 41.9445 50.2889 41.2473 42.8561 41.2473C35.2545 41.2473 28.218 41.9765 22.4748 43.2155C21.0744 42.9077 19.7482 42.5686 18.5065 42.2012C18.5104 42.3626 18.5124 42.5249 18.5124 42.6879C18.5124 43.2096 18.4921 43.7235 18.4529 44.2276C19.7066 43.8611 21.051 43.5227 22.4748 43.2155C28.1502 44.4626 35.0452 45.1936 42.4802 45.1936C50.0764 45.1936 57.1089 44.4306 62.8528 43.1337C64.1304 43.4016 65.346 43.6944 66.4919 44.0099C66.463 43.5758 66.4481 43.1347 66.4481 42.6879C66.4481 42.5249 66.4501 42.3626 66.454 42.2012ZM76.8801 31.887C73.64 26.8171 59.4699 23 42.4802 23C25.4905 23 11.3204 26.8171 8.08032 31.887C5.64254 33.823 3.96045 37.9319 3.96045 42.6879C3.96045 47.6236 5.77204 51.8623 8.35979 53.6988C11.3122 58.6328 25.6338 62.3758 42.8561 62.3758C61.3349 62.3758 76.4741 58.0667 77.8138 52.6009C79.737 50.4443 81 46.809 81 42.6879C81 37.9319 79.3179 33.8229 76.8801 31.887Z" fill="black"/>
<path fill-rule="evenodd" clip-rule="evenodd" d="M66.454 42.2012C65.3213 42.5363 64.1184 42.848 62.8528 43.1337C57.1814 41.9445 50.2889 41.2473 42.8561 41.2473C35.2545 41.2473 28.218 41.9765 22.4748 43.2155C21.0744 42.9077 19.7482 42.5686 18.5065 42.2012C18.5104 42.3626 18.5124 42.5249 18.5124 42.6879C18.5124 43.2096 18.4921 43.7235 18.4529 44.2276C19.7066 43.8611 21.051 43.5227 22.4748 43.2155C28.1502 44.4626 35.0452 45.1936 42.4802 45.1936C50.0764 45.1936 57.1089 44.4306 62.8528 43.1337C64.1304 43.4016 65.346 43.6944 66.4919 44.0099C66.463 43.5758 66.4481 43.1347 66.4481 42.6879C66.4481 42.5249 66.4501 42.3626 66.454 42.2012ZM76.8801 31.887C73.64 26.8171 59.4699 23 42.4802 23C25.4905 23 11.3204 26.8171 8.08032 31.887C5.64254 33.823 3.96045 37.9319 3.96045 42.6879C3.96045 47.6236 5.77204 51.8623 8.35979 53.6988C11.3122 58.6328 25.6338 62.3758 42.8561 62.3758C61.3349 62.3758 76.4741 58.0667 77.8138 52.6009C79.737 50.4443 81 46.809 81 42.6879C81 37.9319 79.3179 33.8229 76.8801 31.887Z" fill="black"/>
<path fill-rule="evenodd" clip-rule="evenodd" d="M66.454 42.2012C65.3213 42.5363 64.1184 42.848 62.8528 43.1337C57.1814 41.9445 50.2889 41.2473 42.8561 41.2473C35.2545 41.2473 28.218 41.9765 22.4748 43.2155C21.0744 42.9077 19.7482 42.5686 18.5065 42.2012C18.5104 42.3626 18.5124 42.5249 18.5124 42.6879C18.5124 43.2096 18.4921 43.7235 18.4529 44.2276C19.7066 43.8611 21.051 43.5227 22.4748 43.2155C28.1502 44.4626 35.0452 45.1936 42.4802 45.1936C50.0764 45.1936 57.1089 44.4306 62.8528 43.1337C64.1304 43.4016 65.346 43.6944 66.4919 44.0099C66.463 43.5758 66.4481 43.1347 66.4481 42.6879C66.4481 42.5249 66.4501 42.3626 66.454 42.2012ZM76.8801 31.887C73.64 26.8171 59.4699 23 42.4802 23C25.4905 23 11.3204 26.8171 8.08032 31.887C5.64254 33.823 3.96045 37.9319 3.96045 42.6879C3.96045 47.6236 5.77204 51.8623 8.35979 53.6988C11.3122 58.6328 25.6338 62.3758 42.8561 62.3758C61.3349 62.3758 76.4741 58.0667 77.8138 52.6009C79.737 50.4443 81 46.809 81 42.6879C81 37.9319 79.3179 33.8229 76.8801 31.887Z" fill="white"/>
<path d="M26.952 28.7901C27.1704 29.1453 27.2319 29.3607 27.2362 29.4798C27.2391 29.5574 27.2219 29.6033 27.144 29.6675C27.0387 29.7544 26.8429 29.8488 26.5095 29.9444C26.1843 30.0376 25.7797 30.1184 25.2927 30.2069C25.1511 30.2327 25.0037 30.2588 24.8509 30.286C22.9224 30.6284 20.1419 31.1222 17.3715 32.8263C14.8467 34.3794 12.7348 36.6933 11.0408 38.5493C10.742 38.8767 10.4562 39.1898 10.1835 39.482C9.24603 40.4862 8.50343 41.1979 7.90914 41.496C7.62448 41.6387 7.43836 41.6527 7.31136 41.6194C7.18898 41.5874 7.02005 41.4848 6.82633 41.1699C6.03278 39.8798 6.25154 37.9951 7.49835 35.8878C8.73197 33.8029 10.9093 31.6256 13.7507 29.8778C16.592 28.13 19.5172 27.1686 21.9345 27.0078C24.3775 26.8453 26.1584 27.5001 26.952 28.7901Z" fill="black" stroke="white"/>
<path d="M63.5685 56.6607C63.3742 56.432 63.319 56.3018 63.3073 56.2471C63.3063 56.2425 63.305 56.2412 63.3043 56.241C63.3052 56.2406 63.3074 56.239 63.3115 56.2344C63.35 56.1906 63.4483 56.1171 63.6647 56.0207C63.8728 55.928 64.1396 55.8354 64.4705 55.7273C64.5669 55.6959 64.6675 55.6635 64.772 55.6299C66.0825 55.2083 68.002 54.5909 69.7591 53.0975C71.3571 51.7393 72.5639 49.8696 73.5185 48.3905C73.6862 48.1307 73.8461 47.8829 73.9989 47.6522C74.5344 46.8437 74.9497 46.2961 75.2991 46.0501C75.4599 45.9369 75.5491 45.9298 75.5934 45.9355C75.6387 45.9413 75.7456 45.9745 75.9117 46.17C76.5923 46.9707 76.6866 48.2781 76.0874 49.868C75.4951 51.4394 74.2591 53.171 72.5018 54.6646C70.7444 56.1582 68.8362 57.0989 67.1899 57.4301C65.5242 57.7652 64.2491 57.4614 63.5685 56.6607Z" fill="black" stroke="white"/>
</svg>
