<svg width="85" height="85" viewBox="0 0 85 85" fill="none" xmlns="http://www.w3.org/2000/svg">
<circle cx="42.5" cy="42.5" r="42.5" fill="black"/>
<mask id="path-2-inside-1_31_411" fill="white">
<path fill-rule="evenodd" clip-rule="evenodd" d="M49.708 61.6313C53.5783 63.5053 56.4999 64.92 56.4999 57.5755C56.4999 57.0765 56.4864 56.5462 56.46 55.988C57.2062 56.155 58.0161 56.6146 59 57.5C57.5655 68.0191 55.6738 67.1074 44.58 61.7606C44.0728 61.5161 43.5464 61.2624 42.9999 61.0001C29.9999 67.5001 25 67.5 26.9999 56.6887C27.7607 56.5079 28.4174 56.4471 29.0212 56.4741C29.007 56.856 28.9999 57.2236 28.9999 57.5755C28.9999 64.9676 32.1748 63.4866 36.2306 61.5948C38.3445 60.6088 40.6977 59.5112 42.9654 59.5001C42.9769 59.5001 42.9884 59.5001 42.9999 59.5001C43.011 59.5001 43.022 59.5001 43.0331 59.5001C45.3286 59.5108 47.6522 60.6359 49.708 61.6313ZM43.0331 59.5001C47.9163 59.4937 50.6314 58.078 52.6465 57.0273C54.098 56.2705 55.1863 55.703 56.46 55.988C55.8915 43.9452 49.3337 19 42.9999 19C36.5795 19 29.4597 44.6313 29.0212 56.4741C30.2575 56.5295 31.2715 56.9528 32.5012 57.4662C34.6132 58.348 37.3614 59.4954 42.9654 59.5001C42.9769 59.5 42.9884 59.5 43 59.5C43.011 59.5 43.022 59.5 43.0331 59.5001Z"/>
</mask>
<path fill-rule="evenodd" clip-rule="evenodd" d="M49.708 61.6313C53.5783 63.5053 56.4999 64.92 56.4999 57.5755C56.4999 57.0765 56.4864 56.5462 56.46 55.988C57.2062 56.155 58.0161 56.6146 59 57.5C57.5655 68.0191 55.6738 67.1074 44.58 61.7606C44.0728 61.5161 43.5464 61.2624 42.9999 61.0001C29.9999 67.5001 25 67.5 26.9999 56.6887C27.7607 56.5079 28.4174 56.4471 29.0212 56.4741C29.007 56.856 28.9999 57.2236 28.9999 57.5755C28.9999 64.9676 32.1748 63.4866 36.2306 61.5948C38.3445 60.6088 40.6977 59.5112 42.9654 59.5001C42.9769 59.5001 42.9884 59.5001 42.9999 59.5001C43.011 59.5001 43.022 59.5001 43.0331 59.5001C45.3286 59.5108 47.6522 60.6359 49.708 61.6313ZM43.0331 59.5001C47.9163 59.4937 50.6314 58.078 52.6465 57.0273C54.098 56.2705 55.1863 55.703 56.46 55.988C55.8915 43.9452 49.3337 19 42.9999 19C36.5795 19 29.4597 44.6313 29.0212 56.4741C30.2575 56.5295 31.2715 56.9528 32.5012 57.4662C34.6132 58.348 37.3614 59.4954 42.9654 59.5001C42.9769 59.5 42.9884 59.5 43 59.5C43.011 59.5 43.022 59.5 43.0331 59.5001Z" fill="white"/>
<path d="M49.708 61.6313L50.1438 60.7313L50.1438 60.7313L49.708 61.6313ZM59 57.5L59.9908 57.6352L60.0623 57.1108L59.6689 56.7567L59 57.5ZM44.58 61.7606L45.0142 60.8598L45.0142 60.8598L44.58 61.7606ZM42.9999 61.0001L43.4326 60.0986L42.9909 59.8866L42.5527 60.1057L42.9999 61.0001ZM26.9999 56.6887L26.7686 55.7159L26.135 55.8665L26.0166 56.5068L26.9999 56.6887ZM36.2306 61.5948L36.6533 62.5011L36.6533 62.5011L36.2306 61.5948ZM52.6465 57.0273L52.1842 56.1406L52.1842 56.1406L52.6465 57.0273ZM32.5012 57.4662L32.8864 56.5434L32.8864 56.5434L32.5012 57.4662ZM55.4999 57.5755C55.4999 59.3689 55.3182 60.5125 55.0493 61.2128C54.7964 61.8715 54.5136 62.0354 54.2929 62.0954C53.9846 62.1792 53.4956 62.1396 52.7273 61.8754C51.9775 61.6175 51.1274 61.2075 50.1438 60.7313L49.2722 62.5314C50.2238 62.9921 51.1903 63.4618 52.0768 63.7667C52.9448 64.0652 53.9119 64.2716 54.8177 64.0253C55.8112 63.7552 56.5006 63.0127 56.9165 61.9296C57.3163 60.888 57.4999 59.4543 57.4999 57.5755H55.4999ZM55.4611 56.0352C55.4868 56.5798 55.4999 57.0943 55.4999 57.5755H57.4999C57.4999 57.0588 57.4859 56.5125 57.4589 55.9409L55.4611 56.0352ZM56.2417 56.9639C56.7535 57.0784 57.412 57.4163 58.331 58.2433L59.6689 56.7567C58.6202 55.8129 57.659 55.2316 56.6784 55.0122L56.2417 56.9639ZM58.0091 57.3649C57.6507 59.9935 57.2762 61.7907 56.7803 62.9669C56.3021 64.1012 55.7923 64.4811 55.2112 64.6004C54.4974 64.747 53.4156 64.5638 51.6688 63.8958C49.9574 63.2413 47.8032 62.2039 45.0142 60.8598L44.1458 62.6614C46.9038 63.9906 49.1462 65.0723 50.9544 65.7638C52.7273 66.4418 54.2882 66.8316 55.6134 66.5596C57.0712 66.2603 57.9966 65.23 58.6232 63.7439C59.2322 62.2996 59.632 60.2661 59.9908 57.6352L58.0091 57.3649ZM45.0142 60.8598C44.5071 60.6154 43.9799 60.3613 43.4326 60.0986L42.5672 61.9016C43.1128 62.1636 43.6386 62.4169 44.1458 62.6614L45.0142 60.8598ZM42.5527 60.1057C39.3177 61.7231 36.6186 62.9166 34.4219 63.639C32.1944 64.3716 30.6221 64.5714 29.576 64.3566C29.0781 64.2544 28.721 64.0625 28.4542 63.8022C28.1839 63.5383 27.9514 63.1502 27.7922 62.572C27.4636 61.3786 27.4902 59.5359 27.9832 56.8706L26.0166 56.5068C25.5097 59.2472 25.4113 61.4588 25.8639 63.1029C26.0954 63.9436 26.4801 64.67 27.0573 65.2335C27.6382 65.8004 28.3592 66.1485 29.1738 66.3157C30.7527 66.6399 32.7429 66.2966 35.0467 65.5389C37.3812 64.7711 40.182 63.5271 43.4471 61.8945L42.5527 60.1057ZM27.2312 57.6616C27.9126 57.4996 28.4761 57.4508 28.9765 57.4731L29.0659 55.4751C28.3588 55.4435 27.6088 55.5161 26.7686 55.7159L27.2312 57.6616ZM29.9999 57.5755C29.9999 57.2371 30.0068 56.882 30.0205 56.5112L28.0219 56.4371C28.0073 56.8301 27.9999 57.2101 27.9999 57.5755H29.9999ZM35.8079 60.6886C34.7789 61.1685 33.8759 61.5882 33.0735 61.8558C32.2538 62.129 31.7001 62.1851 31.3313 62.0951C31.0516 62.0269 30.7483 61.8451 30.4831 61.2052C30.1969 60.5146 29.9999 59.3764 29.9999 57.5755H27.9999C27.9999 59.4706 28.1997 60.9193 28.6355 61.9709C29.0924 63.0733 29.8363 63.7891 30.8573 64.0381C31.7892 64.2655 32.7897 64.0586 33.706 63.7531C34.6396 63.4419 35.6544 62.967 36.6533 62.5011L35.8079 60.6886ZM42.9605 58.5001C40.4315 58.5125 37.8694 59.727 35.8079 60.6886L36.6533 62.5011C38.8196 61.4906 40.9638 60.5099 42.9703 60.5001L42.9605 58.5001ZM42.9644 60.5001C42.9763 60.5001 42.9882 60.5001 42.9999 60.5001V58.5001C42.9886 58.5001 42.9774 58.5001 42.9664 58.5001L42.9644 60.5001ZM42.9999 60.5001C43.0114 60.5001 43.0229 60.5001 43.0344 60.5001L43.0317 58.5001C43.0211 58.5001 43.0105 58.5001 42.9999 58.5001V60.5001ZM50.1438 60.7313C48.1388 59.7604 45.6027 58.5121 43.0377 58.5001L43.0284 60.5001C45.0546 60.5095 47.1656 61.5113 49.2722 62.5314L50.1438 60.7313ZM43.0344 60.5001C48.155 60.4934 51.0403 58.9926 53.1088 57.914L52.1842 56.1406C50.2225 57.1634 47.6776 58.494 43.0318 58.5001L43.0344 60.5001ZM53.1088 57.914C54.6442 57.1134 55.3893 56.7732 56.2417 56.9639L56.6784 55.0122C54.9832 54.6328 53.5518 55.4275 52.1842 56.1406L53.1088 57.914ZM42.9999 20C43.4513 20 44.018 20.2229 44.7057 20.8398C45.3891 21.4528 46.1072 22.3815 46.8374 23.5999C48.2957 26.0331 49.6995 29.4463 50.9404 33.2855C53.4217 40.9624 55.1819 50.1207 55.4611 56.0352L57.4589 55.9409C57.1696 49.8126 55.3667 40.4769 52.8435 32.6704C51.5822 28.768 50.1234 25.1922 48.5529 22.5718C47.7688 21.2634 46.9309 20.1492 46.0412 19.351C45.1556 18.5566 44.1319 18 42.9999 18V20ZM30.0205 56.5112C30.2353 50.7116 32.0989 41.44 34.7157 33.6131C36.0237 29.701 37.5013 26.2067 39.0227 23.7103C39.7845 22.4602 40.5317 21.5034 41.2403 20.8701C41.9548 20.2313 42.5399 20 42.9999 20V18C41.8547 18 40.8128 18.5696 39.9074 19.3789C38.996 20.1935 38.1302 21.3317 37.3148 22.6695C35.6818 25.3491 34.1483 29.0028 32.8189 32.9789C30.1612 40.9283 28.2457 50.3939 28.0219 56.4371L30.0205 56.5112ZM28.9765 57.4731C30.0084 57.5193 30.8629 57.8659 32.1159 58.389L32.8864 56.5434C31.6802 56.0398 30.5066 55.5396 29.0659 55.4751L28.9765 57.4731ZM32.1159 58.389C34.2973 59.2998 37.1817 60.4952 42.9645 60.5001L42.9662 58.5001C37.5411 58.4955 34.929 57.3962 32.8864 56.5434L32.1159 58.389ZM43 58.5C42.9869 58.5 42.9737 58.5 42.9604 58.5001L42.9703 60.5001C42.9801 60.5 42.99 60.5 43 60.5V58.5ZM43.0379 58.5001C43.025 58.5 43.0124 58.5 43 58.5V60.5C43.0096 60.5 43.019 60.5 43.0282 60.5001L43.0379 58.5001Z" fill="white" mask="url(#path-2-inside-1_31_411)"/>
<path d="M26.7584 57.7658C26.709 57.746 26.6784 57.7291 26.6604 57.7174C26.6623 57.7083 26.6651 57.6969 26.6693 57.6828C26.6964 57.5919 26.7617 57.4572 26.8856 57.2621C27.0067 57.0712 27.1654 56.8505 27.3588 56.5883C27.4151 56.512 27.4738 56.4329 27.5346 56.351C28.3041 55.3143 29.4124 53.8211 30.2419 51.7559C30.9978 49.8741 31.4008 47.8152 31.7242 46.1632C31.7813 45.8718 31.8358 45.593 31.8894 45.3302C32.0732 44.4284 32.2381 43.7518 32.4322 43.3392C32.5289 43.1335 32.6036 43.0596 32.6331 43.0396C32.6399 43.0409 32.6516 43.0439 32.669 43.0509C32.8544 43.1254 33.0541 43.3288 33.1996 43.7828C33.3438 44.233 33.4092 44.8592 33.3744 45.6341C33.3052 47.179 32.8438 49.2015 31.9915 51.3233C31.1392 53.4451 30.0734 55.2248 29.0547 56.3883C28.5438 56.9719 28.0634 57.3789 27.6478 57.6042C27.2287 57.8315 26.9438 57.8403 26.7584 57.7658ZM26.6568 57.7462C26.6567 57.7463 26.6566 57.7454 26.6567 57.7436C26.6568 57.7453 26.6568 57.7462 26.6568 57.7462ZM32.6261 43.0387C32.6261 43.0387 32.6263 43.0387 32.6268 43.0387L32.6261 43.0387Z" fill="black" stroke="white"/>
<path d="M59.1817 58.7898C59.2708 58.7541 59.3154 58.7246 59.3356 58.7086C59.3341 58.7003 59.3315 58.6891 59.3274 58.6747C59.3024 58.5884 59.2382 58.4568 59.11 58.2622C58.9849 58.0723 58.8197 57.8528 58.6173 57.5911C58.5584 57.515 58.4969 57.4361 58.4332 57.3543C57.6278 56.3202 56.4649 54.8269 55.6259 52.7382C54.8616 50.8356 54.4892 48.7399 54.1911 47.0621C54.1385 46.7663 54.0883 46.4836 54.0386 46.2171C53.8676 45.3003 53.7108 44.6193 53.5153 44.2094C53.4177 44.0047 53.3415 43.9368 53.3125 43.9195C53.3046 43.9148 53.3023 43.9147 53.2997 43.9146C53.2995 43.9146 53.2994 43.9146 53.2992 43.9146C53.2935 43.9144 53.2676 43.9145 53.2151 43.9356C52.973 44.0329 52.7407 44.2726 52.5678 44.7391C52.3948 45.2057 52.3032 45.8473 52.3154 46.6354C52.3397 48.2081 52.7752 50.2559 53.6336 52.393C54.4921 54.5301 55.5941 56.31 56.6644 57.4626C57.2008 58.0402 57.7108 58.4401 58.1584 58.6574C58.606 58.8747 58.9396 58.8871 59.1817 58.7898ZM59.3376 58.7289C59.3377 58.7289 59.3378 58.728 59.3377 58.7259C59.3375 58.7278 59.3375 58.7288 59.3376 58.7289Z" fill="black" stroke="white"/>
</svg>
