<svg width="85" height="85" viewBox="0 0 85 85" fill="none" xmlns="http://www.w3.org/2000/svg">
<circle cx="42.5" cy="42.5" r="42.5" fill="black"/>
<path d="M41.5 38C41.5 46.6252 35.3952 53.5 28 53.5C20.6048 53.5 14.5 46.6252 14.5 38C14.5 29.3748 20.6048 22.5 28 22.5C35.3952 22.5 41.5 29.3748 41.5 38Z" fill="#070707" stroke="white"/>
<path d="M69.5 37.5C69.5 46.435 63.5906 53.5 56.5 53.5C49.4094 53.5 43.5 46.435 43.5 37.5C43.5 28.565 49.4094 21.5 56.5 21.5C63.5906 21.5 69.5 28.565 69.5 37.5Z" fill="#070707" stroke="white"/>
<path d="M42 67.25C45.4648 67.25 48.5282 64.3326 50.7107 59.7859C52.9017 55.2211 54.25 48.9326 54.25 42C54.25 35.0674 52.9017 28.7789 50.7107 24.2141C48.5282 19.6674 45.4648 16.75 42 16.75C38.5352 16.75 35.4718 19.6674 33.2893 24.2141C31.0983 28.7789 29.75 35.0674 29.75 42C29.75 48.9326 31.0983 55.2211 33.2893 59.7859C35.4718 64.3326 38.5352 67.25 42 67.25Z" fill="#070707" stroke="white" stroke-width="0.5"/>
<path d="M42 67.25C45.4329 67.25 48.5012 64.9898 50.6982 61.4196C52.8977 57.8454 54.25 52.9234 54.25 47.5C54.25 42.0766 52.8977 37.1546 50.6982 33.5804C48.5012 30.0102 45.4329 27.75 42 27.75C38.5671 27.75 35.4988 30.0102 33.3018 33.5804C31.1023 37.1546 29.75 42.0766 29.75 47.5C29.75 52.9234 31.1023 57.8454 33.3018 61.4196C35.4988 64.9898 38.5671 67.25 42 67.25Z" fill="#070707" stroke="white" stroke-width="0.5"/>
<path d="M55 62.0698C55 70.7522 47.5714 79 42 79C34.8203 79 29 70.7522 29 62.0698C29 53.3873 35.1905 55.4186 42 53C49.4286 55.4186 55 53.3873 55 62.0698Z" fill="white"/>
<path d="M42 79C47.5714 79 55 70.7522 55 62.0698C55 53.3873 49.4286 55.4186 42 53C35.1905 55.4186 29 53.3873 29 62.0698C29 70.7522 34.8203 79 42 79ZM42 79C44.1667 74.6667 42.5417 73.0417 42 73.0417" stroke="black"/>
<ellipse cx="52.5" cy="24.5" rx="12.5" ry="7.5" fill="#070707"/>
<ellipse cx="35.5" cy="24.5" rx="12.5" ry="7.5" fill="#070707"/>
</svg>
